<svg width="310" height="118" xmlns="http://www.w3.org/2000/svg" xmlns:xlink="http://www.w3.org/1999/xlink"><use xlink:href="#path0_fill" transform="scale(.5678 .55054)" fill="#00B3DF"/><defs><path id="path0_fill" fill-rule="evenodd" d="M289.71 72.587l1.169.044 1.168.044 1.168.086 1.169.174 1.125.173 1.125.174 1.081.26 1.126.304 1.038.304 1.082.348 1.039.39 1.038.435 1.039.434.995.52.952.521.995.522-.736.39-.822.391-.822.434-.865.478-.952.52-.952.521-1.039.608-1.039.608-1.081.651-1.125.695-1.169.738-1.168.781-1.212.826-1.255.824-1.254.912-1.299.912-1.428-.825-1.471-.782-1.384-.781-1.385-.738-1.385-.651-1.341-.695-1.299-.608-1.255-.564-1.211-.564-1.212-.521-1.168-.478-1.082-.478-1.082-.39-.995-.39-.995-.391-.909-.304 1.038-.695 1.082-.608 1.082-.608 1.082-.564 1.168-.521 1.126-.478 1.167-.434 1.212-.39 1.212-.347 1.212-.348 1.255-.26 1.255-.218 1.298-.173 1.297-.087 1.299-.087 1.298-.044zm131.722 34.558v1.129l.087 1.085.13 1.085.216 1.042.216 1.042.303.999.346.998.389.998.39.956.476.911.519.912.563.869.606.824.606.825.692.781.692.738.736.695.779.694.822.608.822.608.865.565.909.521.909.477.952.435.996.39.995.347.995.261 1.038.26 1.039.174 1.082.13 1.082.087 1.082.044 1.125-.044 1.081-.087 1.039-.13 1.082-.174 1.038-.26.996-.261.995-.347.952-.39.952-.435.909-.477.908-.521.866-.565.822-.608.822-.608.779-.694.736-.695.735-.738.649-.781.649-.825.563-.824.562-.869.52-.912.476-.911.432-.956.39-.998.346-.998.26-.999.259-1.042.173-1.042.13-1.085.086-1.085.044-1.129V21.446l-.044-1.085-.086-1.085-.13-1.042-.173-1.042-.216-.999-.259-.998-.347-.955-.346-.955-.432-.956-.433-.911-.477-.868-.562-.869-.563-.825-.606-.781-.648-.781-.649-.739-.52 1.563-.519 1.52-.606 1.52-.649 1.475-.692 1.433-.779 1.433-.779 1.389-.866 1.346-.865 1.346-.952 1.302-.952 1.259-1.039 1.216-1.038 1.172-1.125 1.172-1.126 1.129-1.167 1.042-1.212 1.041-1.255.999-1.299.955-1.297.868-1.342.869-1.385.825-1.428.737-1.428.739-1.471.65-1.471.609-1.558.564-1.514.52-1.558.435-1.602.434-1.644.348-1.601.26v68.42zm-81.828-95.858l.735-1.215.779-1.172.865-1.129.952-1.085.996-.999 1.082-.911 1.125-.869 1.168-.781 1.255-.695 1.298-.608 1.342-.564 1.341-.434 1.428-.347 1.472-.26 1.47-.175L358.427 0l1.125.043 1.082.087 1.038.13 1.083.174 1.038.26.995.261.995.347.952.391.953.434.908.478.909.52.866.522.822.608.822.65.778.652.736.738.736.738.649.781.649.782.563.868.562.868.519.869.477.955.432.912.39.998.345.999.261.998.259 1.042.173 1.042.13 1.085.086 1.086.044 1.128V60.52l-.822-1.867-.866-1.824-.909-1.823-.908-1.823-.952-1.78-.952-1.78-1.039-1.737-1.038-1.736-1.039-1.693-1.082-1.694-1.125-1.65-1.168-1.649-1.169-1.65-1.211-1.606-1.211-1.563-1.255-1.563-1.299-1.563-1.298-1.52-1.342-1.475-1.384-1.476-1.385-1.476-1.385-1.39-1.428-1.432-1.471-1.346-1.471-1.39-1.514-1.302-1.516-1.302-1.557-1.26-1.558-1.258-1.601-1.216-1.601-1.215-1.644-1.173zM272.964 0l2.769.043 2.726.087 2.727.174 2.725.26 2.683.304 2.64.391 2.64.434 2.639.478 2.597.564 2.553.651 2.553.695 2.509.738 2.511.825 2.466.868 2.423.912 2.424.998 2.38 1.042 2.38 1.129 2.293 1.129 2.293 1.215 2.25 1.26 2.208 1.345 2.206 1.346 2.121 1.433 2.12 1.476 2.077 1.52 2.034 1.562 2.034 1.606 1.948 1.65 1.903 1.693 1.861 1.78 1.861 1.78 1.774 1.823 1.774 1.91 1.688 1.91 1.644 1.954 1.601 2.04 1.558 2.041 1.515 2.084 1.471 2.084 1.428 2.17 1.341 2.215 1.342 2.214 1.254 2.257 1.212 2.301 1.126 2.301 1.125 2.388 1.038 2.388.995 2.388.909 2.474.866 2.475.822 2.474.735 2.562.693 2.517.649 2.606.562 2.604.476 2.605.433 2.648.389 2.692.303 2.691.26 2.692.173 2.735.086 2.779.044 2.735-.044 2.388.044.043v1.606l.086 1.563.087 1.563.13 1.606.173 1.52.216 1.563.26 1.519.303 1.519.303 1.52.389 1.476.389 1.476.433 1.476.477 1.433.475 1.432.563 1.433.562 1.389.606 1.389.606 1.347.693 1.345.692 1.303.736 1.345.735 1.26.779 1.259.822 1.259.866 1.215.865 1.216.908 1.172.91 1.172.995 1.129.952 1.128 1.038 1.086 1.039 1.042 1.038 1.042 1.082.999 1.125.997 1.125.956 1.125.955 1.212.868 1.168.912 1.256.825 1.211.825 1.255.781 1.298.782 1.299.737 1.341.695 1.341.651 1.342.651 1.384.608 1.385.565 1.428.52 1.428.522 1.428.477 1.472.434 1.47.391 1.472.347 1.514.348 1.515.26 1.514.261 1.558.216 1.515.174 1.558.174 1.601.087 1.557.043 1.602.044 1.6-.044 1.602-.043 1.558-.087 1.557-.174 1.558-.174 1.515-.216 1.557-.261 1.515-.26 1.471-.348 1.515-.347 1.471-.391 1.428-.434 1.471-.477 1.428-.522 1.385-.52 1.385-.565 1.385-.608 1.341-.651 1.341-.651 1.342-.695 1.298-.737 1.299-.782 1.255-.781 1.254-.825 1.212-.825 1.168-.912 1.212-.868 1.125-.955 1.125-.956 1.125-.997 1.082-.999 1.082-1.042.995-1.042 1.038-1.086.953-1.128.995-1.129.908-1.172.909-1.172.866-1.216.865-1.215.823-1.259.778-1.259.736-1.26.736-1.345.692-1.303.692-1.345.606-1.347.606-1.389.562-1.389.563-1.433.476-1.432.476-1.433.432-1.476.39-1.476.39-1.476.303-1.52.303-1.519.259-1.519.216-1.563.173-1.52.13-1.606.087-1.563.086-1.563V21.446l.044-1.128.086-1.086.13-1.085.173-1.042.26-1.042.259-.998.347-.999.389-.998.433-.912.475-.955.52-.869.563-.868.562-.868.649-.782.65-.781.735-.738.735-.738.78-.651.822-.651.822-.608.865-.521.909-.521.909-.478.952-.434.951-.39.996-.348.995-.26 1.039-.26 1.082-.174 1.038-.13 1.082-.088L524.594 0l1.081.043 1.083.087 1.081.13 1.039.174 1.038.26 1.039.261.995.347.952.391.952.434.909.478.909.52.865.522.823.608.822.65.778.652.736.738.692.738.693.781.649.782.563.868.562.868.519.869.477.955.432.912.39.998.345.999.26.998.26 1.042.173 1.042.13 1.085.087 1.086.042 1.128v88.13l-.042 2.691-.087 2.692-.173 2.649-.26 2.691-.302 2.605-.347 2.605-.433 2.604-.475 2.562-.563 2.561-.606 2.518-.692 2.475-.736 2.474-.779 2.475-.865 2.431-.909 2.388-.952 2.344-.995 2.345-1.082 2.3-1.125 2.301-1.212 2.214-1.211 2.215-1.299 2.17-1.298 2.171-1.385 2.084-1.471 2.084-1.471 2.04-1.514 1.997-1.558 1.954-1.645 1.91-1.644 1.91-1.731 1.823-1.731 1.781-1.818 1.779-1.817 1.693-1.86 1.694-1.948 1.606-1.947 1.606-1.991 1.52-2.033 1.476-2.035 1.432-2.12 1.389-2.12 1.347-2.163 1.301-2.208 1.217-2.25 1.172-2.25 1.129-2.293 1.085-2.337 1.042-2.38.955-2.38.911-2.424.825-2.423.825-2.466.738-2.51.651-2.51.608-2.51.565-2.596.521-2.553.39-2.597.391-2.639.304-2.639.217-2.683.173-2.641.088-2.725.043-3.203-.043-3.158-.131-3.16-.26-3.115-.304-3.115-.434-3.03-.521-3.072-.608-2.986-.652-2.986-.781-2.899-.868-2.9-.955-2.855-.999-2.856-1.128-2.769-1.173-2.727-1.259-2.726-1.345-2.64-1.39-2.596-1.476-2.553-1.562-2.51-1.65-2.466-1.693-2.424-1.737-2.336-1.867-2.294-1.867-2.25-1.953-2.207-2.04-2.12-2.085-2.078-2.127-1.99-2.214-1.947-2.257-1.904-2.301-1.817-2.388-1.861 2.388-1.905 2.301-1.99 2.257-2.077 2.214-2.121 2.127-2.163 2.085-2.207 2.04-2.293 1.953-2.337 1.911-2.38 1.823-2.466 1.78-2.511 1.693-2.509 1.607-2.596 1.562-2.64 1.476-2.726 1.433-2.727 1.302-2.769 1.259-2.812 1.216-2.857 1.085-2.899.999-2.899.955-2.986.868-2.986.781-3.072.652-3.073.608-3.072.521-3.116.434-3.159.304-3.202.26-3.202.131-3.245.043h-76.809l1.471-.912 1.428-.955 1.428-.955 1.428-.998 1.342-1.042 1.341-1.086 1.342-1.085 1.297-1.129 1.255-1.172 1.256-1.216 1.211-1.215 1.169-1.216 1.167-1.302 1.126-1.26 1.125-1.345 1.038-1.346 1.039-1.389 1.038-1.389.953-1.433.952-1.433.908-1.476.866-1.476.865-1.519.822-1.519.78-1.563.735-1.563.693-1.607.692-1.606.605-1.65.606-1.649.563-1.65.519-1.693h43.749l1.644-.044 1.645-.043 1.6-.131 1.645-.13 1.601-.174 1.558-.216 1.601-.261 1.558-.304 1.514-.347 1.558-.347 1.514-.434 1.515-.435 1.471-.477 1.472-.521 1.471-.521 1.428-.608 1.428-.608 1.385-.651 1.384-.694 1.385-.695 1.342-.782 1.298-.781 1.298-.782 1.298-.868 1.255-.868 1.255-.868 1.212-.956 1.211-.955 1.169-.955 1.125-1.042 1.125-.998 1.125-1.085 1.039-1.085 1.038-1.129 1.039-1.129.995-1.172.952-1.173.952-1.215.909-1.216.865-1.259.865-1.302.823-1.302.778-1.303.78-1.345.735-1.347.692-1.389.65-1.389.648-1.433.606-1.432.563-1.433.519-1.476.476-1.476.476-1.519.433-1.52.39-1.52.345-1.519.303-1.563.303-1.606.216-1.563.217-1.606.173-1.607.087-1.606.086-1.65.043-1.649v-1.563l-.043-1.65-.086-1.606-.087-1.607-.173-1.606-.173-1.563-.26-1.563-.259-1.519-.303-1.563-.347-1.52-.389-1.519-.389-1.476-.433-1.476-.519-1.477-.476-1.431-.563-1.433-.606-1.433-.605-1.389-.65-1.39-.649-1.345-.735-1.346-.736-1.346-.779-1.303-.779-1.302-.822-1.26-.866-1.214-.865-1.26-.909-1.172-.951-1.172-.996-1.172-.952-1.129-1.038-1.128-1.039-1.086-1.082-1.042-1.081-1.042-1.125-.998-1.125-.999-1.169-.955-1.212-.911-1.168-.912-1.255-.868-1.255-.869-1.255-.781-1.298-.782-1.298-.78-1.342-.739-1.341-.695-1.385-.65-1.384-.652-1.386-.564-1.428-.565-1.427-.564-1.472-.478-1.47-.477-1.472-.434-1.514-.391-1.515-.347-1.515-.348-1.514-.304-1.558-.217-1.558-.217-1.601-.173-1.558-.174-1.601-.087-1.601-.043-1.644-.044H134.189l-1.083-.087-1.081-.13-1.039-.217-1.038-.217-.995-.304-.996-.347-.995-.39-.909-.392-.952-.477-.866-.521-.908-.565-.822-.607-.823-.608-.735-.695-.779-.694-.692-.738-.649-.782-.65-.825-.605-.825-.563-.868-.519-.911-.476-.912-.39-.955-.389-.999-.346-.998-.303-.999-.217-1.042-.216-1.042-.129-1.085-.087-1.085v-2.214l.087-1.086.129-1.085.216-1.042.217-1.042.303-.998.346-.999.389-.998.39-.912.476-.955.519-.869.563-.868.605-.868.65-.781.649-.782.692-.738.779-.738.735-.651.823-.651.822-.608.908-.521.866-.521.952-.478.909-.434.995-.39.996-.348.995-.26 1.038-.26 1.039-.174 1.081-.13 1.083-.087L135.314 0h137.65zM63.871 128.635l-1.645-.044-1.644-.044-1.602-.13-1.644-.13-1.601-.217-1.6-.217-1.559-.261-1.557-.304-1.558-.346-1.558-.392-1.515-.434-1.514-.433-1.472-.478-1.471-.565-1.471-.564-1.428-.564-1.428-.651-1.428-.652-1.385-.694-1.341-.739-1.385-.738-1.298-.825-1.298-.824-1.299-.825-1.254-.912-1.255-.911-1.212-.912-1.212-.999-1.168-.955-1.125-1.041-1.125-1.042-1.125-1.086-1.039-1.128-1.038-1.129-1.039-1.129-.995-1.172-.952-1.216-.952-1.216-.909-1.258-.865-1.259-.822-1.303-.823-1.302-.779-1.346-.779-1.346-.692-1.39-.692-1.388-.65-1.39-.648-1.432-.563-1.477-.563-1.475-.519-1.477-.476-1.475-.476-1.52-.39-1.52-.389-1.563-.346-1.563-.303-1.562-.26-1.606-.216-1.607-.173-1.606-.13-1.606-.13-1.65-.043-1.65L0 64.295l.043-1.65.044-1.649.13-1.65.13-1.606.172-1.606.217-1.607.26-1.606.302-1.563.346-1.563.39-1.563.39-1.52.475-1.519.476-1.519.52-1.476.562-1.476.606-1.433.606-1.432.649-1.433.692-1.39.736-1.389.735-1.345.823-1.346.822-1.303.822-1.302.865-1.259.91-1.259.951-1.215.952-1.216.995-1.172 1.039-1.172 1.038-1.13 1.082-1.084 1.082-1.086 1.125-1.042 1.169-1.042 1.168-.998 1.212-.955 1.211-.955 1.255-.912 1.255-.868 1.298-.825 1.298-.825 1.342-.825 1.341-.738 1.385-.738 1.385-.695 1.428-.65 1.428-.609 1.428-.607 1.47-.565 1.472-.52 1.515-.478 1.515-.478 1.514-.39 1.558-.391 1.558-.348L52.75.998l1.6-.26 1.602-.217 1.6-.174 1.602-.13 1.644-.13 1.645-.044L64.087 0h48.508l-1.038 1.042-.996 1.085-.952 1.13-.865 1.171-.822 1.216-.736 1.259-.692 1.302-.649 1.346-.563 1.39-.476 1.432-.433 1.433-.345 1.476-.26 1.519-.217 1.52-.129 1.563-.044 1.562.044 1.563.129 1.563.217 1.52.26 1.519.345 1.476.433 1.433.476 1.389.563 1.39.649 1.345.692 1.302.736 1.26.822 1.215.865 1.215.952 1.13.996 1.041 1.038 1.042H64.087l-1.126.044-1.081.086-1.039.13-1.081.174-1.04.26-.995.261-.995.348-.952.39-.951.434-.91.478-.908.521-.865.564-.822.565-.823.65-.779.696-.736.694-.735.738-.65.782-.648.825-.563.824-.562.869-.52.911-.475.912-.433.955-.39.955-.346.999-.26 1.042-.26 1.042-.172 1.041-.13 1.086-.086 1.085-.044 1.086.044 1.128.086 1.086.13 1.042.173 1.085.26 1.042.259.998.346 1 .39.954.432.955.476.912.52.911.562.869.563.824.649.825.65.782.734.738.736.737.78.652.822.651.822.565.865.564.908.521.91.477.951.435.952.39.995.348.996.26 1.039.26 1.081.174 1.039.13 1.081.087 1.126.044h95.027l1.644.086 1.644.087 1.601.13 1.601.217 1.601.218 1.601.26 1.558.304 1.558.347 1.558.348 1.514.434 1.515.434 1.515.52 1.471.522 1.471.564 1.428.564 1.428.652 1.428.65 1.385.696 1.341.738 1.385.738 1.342.781 1.297.826 1.299.867 1.254.869 1.255.912 1.212.954 1.212.955 1.168.999 1.125 1.042 1.125 1.042 1.125 1.085 1.082 1.085 1.039 1.129.995 1.173.996 1.172.995 1.215.908 1.216.909 1.258.909 1.26.822 1.302.822 1.303.779 1.346.779 1.345.735 1.389.693 1.389.649 1.433.606 1.433.605 1.433.563 1.476.52 1.476.475 1.519.477 1.52.389 1.519.389 1.563.347 1.563.303 1.563.259 1.606.216 1.606.173 1.607.13 1.606.13 1.65.043 1.65.044 1.649-.044 1.65-.043 1.65-.13 1.649-.13 1.65-.173 1.606-.216 1.607-.259 1.563-.303 1.606-.347 1.562-.389 1.52-.389 1.563-.477 1.52-.475 1.475-.52 1.477-.563 1.476-.605 1.476-.606 1.433-.649 1.389-.693 1.432-.735 1.346-.779 1.346-.779 1.346-.822 1.346-.822 1.259-.909 1.302-.909 1.216-.908 1.258-.995 1.173-.996 1.172-.995 1.172-1.039 1.129-1.082 1.128-1.125 1.043-1.125 1.085-1.125.998-1.168.999-1.212.955-1.212.955-1.255.912-1.254.868-1.299.868-1.297.825-1.342.782-1.385.781-1.341.694-1.385.695-1.428.652-1.428.651-1.428.608-1.471.52-1.471.521-1.515.522-1.515.434-1.514.434-1.558.347-1.558.347-1.558.305-1.601.26-1.601.217-1.601.217-1.601.13-1.644.087-1.644.087H20.252l-1.082-.087-1.082-.13-1.039-.217-1.038-.218-.995-.304-.996-.346-.995-.391-.909-.391-.952-.477-.865-.522-.866-.564-.865-.607-.779-.652-.779-.651-.735-.695-.736-.781-.65-.739-.648-.824-.606-.825-.52-.911-.519-.869-.476-.955-.432-.912-.39-.998-.346-.999-.26-.998-.26-1.042-.172-1.042-.13-1.085-.087-1.086L0 192.886l.043-1.085.087-1.085.13-1.086.173-1.041.26-1.042.259-.999.346-.999.39-.954.432-.955.433-.912.52-.912.562-.868.606-.826.606-.824.692-.781.692-.739.736-.694.779-.695.779-.608.865-.608.866-.564.865-.521.909-.477.952-.434.952-.391.995-.304.995-.304 1.039-.26 1.038-.174 1.082-.13 1.082-.087 1.082-.043h136.222l1.082-.044 1.082-.086 1.081-.131 1.039-.173 1.039-.261.995-.261.995-.347.996-.39.952-.434.908-.478.909-.521.865-.564.823-.565.822-.651.779-.651.735-.739.692-.738.693-.781.606-.825.606-.824.562-.869.519-.912.476-.911.39-.956.389-.955.347-.998.303-.999.216-1.041.216-1.086.13-1.041.086-1.086v-2.214l-.086-1.085-.13-1.086-.216-1.041-.216-1.043-.303-.998-.347-.999-.389-.998-.39-.955-.476-.912-.519-.912-.562-.868-.606-.825-.606-.824-.693-.782-.692-.738-.735-.695-.779-.695-.822-.607-.823-.608-.865-.564-.909-.521-.908-.478-.952-.39-.996-.391-.995-.348-.995-.304-1.039-.216-1.039-.218-1.081-.13-1.082-.086h-94.68zm225.45-40.332l-1.904 1.477-1.991 1.562-1.947 1.606-1.991 1.737-1.471-.651-1.471-.651-1.428-.608-1.385-.608-1.385-.521-1.341-.52-1.342-.479-1.298-.477-1.211-.434-1.212-.39-1.212-.392-1.125-.347-1.081-.304-1.039-.304-.995-.26-.952-.26.952-1.303.951-1.215 1.039-1.173 1.039-1.128 1.125-1.086 1.168-.998 1.212-.999 1.255-.912 2.553 1.042 2.466 1.042 2.424 1.129 2.38 1.172 2.379 1.259 2.294 1.259 2.294 1.346 2.25 1.39zm-8.698 7.163l-1.342 1.26-1.341 1.258-1.341 1.303-1.342 1.346-2.423-1.086-2.337-1.041-2.293-.955-2.25-.826-2.121-.825-2.034-.694-1.947-.651-.909-.26-.908-.304.692-1.607.779-1.607.909-1.519.908-1.475 2.553.78 2.467.825 2.466.869 2.424.955 2.38.955 2.379 1.042 2.338 1.129 2.293 1.128zm-6.145 6.035l-1.991 2.128-1.947 2.257-.908 1.085-.909 1.042-1.774-.608-1.731-.564-1.688-.521-1.687-.478-1.645-.477-1.601-.435-1.514-.39-1.515-.347.13-1.259.173-1.26.217-1.259.259-1.215.303-1.216.346-1.171.389-1.217.433-1.128 2.164.738 2.12.782 2.121.78 2.077.87 2.076.91 2.035.956 2.034.955 2.033 1.042zm-6.491 7.467l-1.384 1.737-1.341 1.736-1.256 1.737-1.211 1.649-1.126 1.607-1.038 1.563-.996 1.475-.908 1.433-.736-1.693-.692-1.736-.519-1.78-.476-1.867-.39-1.867-.259-1.91-.13-1.91-.087-1.997.044-1.129.043-1.172 3.159.912 3.159.955 3.072 1.085 3.072 1.172zm39.292-31.475l1.774 1.129 1.688 1.26 1.6 1.345 1.516 1.433-.736.39-.78.39-.822.435-.865.478-.908.52-.952.565-.953.564-.995.608-.996.608-1.081.651-1.082.695-1.081.738-1.125.78-1.126.783-1.168.825-1.169.868-1.773-1.216-1.732-1.129-1.731-1.085-1.687-1.041 1.904-1.433 1.904-1.433 1.99-1.39 1.991-1.345 2.034-1.303 2.077-1.259 2.12-1.259 2.164-1.172zM296.85 93.426l-1.73 1.303-1.688 1.389-1.775 1.433-1.73 1.519-1.818-.999-1.818-.954-1.773-.956-1.732-.868 1.818-1.65 1.817-1.65 1.861-1.606 1.904-1.563 1.688 1.086 1.688 1.172 1.644 1.128 1.644 1.216zm-8.049 6.642l-1.298 1.172-1.298 1.26-1.298 1.259-1.299 1.302-1.73-.998-1.731-.956-1.688-.868-1.687-.868 2.553-2.649 2.596-2.604 3.462 1.91 3.418 2.04zm-6.231 6.035l-2.034 2.214-1.99 2.301-.822.998-1.818-.824-1.861-.782-1.817-.695-1.817-.694 1.384-1.65 1.385-1.563 2.77-3.126 3.331 1.867 3.289 1.954zm-5.798 6.686l-1.039 1.259-.995 1.302-.952 1.215-.952 1.259-.909 1.216-.866 1.172-.822 1.172-.778 1.129-.78 1.129-.692 1.085-.692 1.042-.649.999-.649.998-.563.955-.519.869-.519.868-.736-.825-.692-.825-.65-.868-.649-.868-.606-.912-.605-.955-.562-.912-.52-.999 2.553-3.603 2.553-3.472 2.553-3.344 2.597-3.256 3.591 1.519 1.774.782 1.775.869zm37.301-29.913l.779.826.735.78.692.87.693.868.649.91.606.913.605.911.563.956-1.471.737-1.601.782-1.688.911-1.774.956-1.817 1.041-1.905 1.086-1.947 1.216-2.034 1.302-1.6-1.302L302 95.423l-1.602-1.172-1.6-1.172 1.817-1.39 1.818-1.345 1.86-1.346 1.861-1.303 1.947-1.259 1.948-1.215 1.99-1.172 2.034-1.173zm-10.342 15.977l-1.602 1.128-1.644 1.173-1.644 1.216-1.645 1.259-1.514-1.043-1.558-.955-1.515-.955-1.514-.912 1.601-1.476 1.644-1.475 1.644-1.39 1.645-1.39 3.072 2.345 3.03 2.475zm-7.876 5.817l-1.342 1.129-1.384 1.128-1.342 1.217-1.341 1.215-2.727-1.824-1.384-.824-1.341-.825 2.509-2.605 2.51-2.474 2.943 1.909 2.899 1.954zm-6.664 5.818l-1.947 1.91-1.948 1.954-.605.65-2.683-1.389-2.683-1.302 2.336-2.692 2.294-2.604 2.639 1.693 2.597 1.78zm-5.669 5.731l-1.255 1.389-1.212 1.345-1.168 1.346-1.125 1.302-1.082 1.303-.995 1.259-.995 1.216-.909 1.215-.909 1.172-.822 1.129-.822 1.085-.736 1.042-.692.999-.649.955-.606.912-.563.825-.995-.782-.952-.869-.951-.867-.91-.912 1.645-2.388 1.601-2.345 1.644-2.3 1.645-2.215 1.644-2.214 1.644-2.127 1.645-2.127 1.688-2.04 2.596 1.345 2.596 1.347zm36.09-25.962l.865 1.65.779 1.736.649 1.737.606 1.823-1.255.608-1.299.695-1.384.694-1.341.738-1.428.825-1.472.825-1.471.868-1.471.955-1.299-1.215-1.341-1.216-1.384-1.216-1.428-1.216 1.601-1.128 1.687-1.085 1.645-1.085 1.731-1.043 1.687-1.041 1.774-.999 1.731-.955 1.818-.955zm-9.693 14.066l-1.515.999-1.515 1.041-1.514 1.042-1.514 1.129-1.732-1.346-1.774-1.346-2.034-1.432 3.073-2.475 3.159-2.388 2.683 2.345 2.683 2.431zm-7.444 5.253l-1.384 1.085-1.385 1.085-1.428 1.173-1.385 1.172-1.557-1.216-1.645-1.215-.951-.695-.996-.694 2.64-2.432 2.639-2.344 2.727 1.997 2.725 2.084zm-6.836 5.644l-1.774 1.649-1.818 1.694-.432.434-1.775-1.085-1.904-1.086-1.731-.999 2.164-2.214 2.163-2.171 2.553 1.867 2.554 1.911zm-5.237 4.992l-1.341 1.346-1.254 1.346-1.213 1.302-1.168 1.303-1.125 1.302-1.082 1.216-1.039 1.215-.951 1.216-.952 1.129-.866 1.128-.822 1.086-.779.998-.735.999-.692.955-.607.868-.606.868-1.384-.694-1.385-.782-1.342-.825-1.254-.868 1.904-2.474 1.904-2.432 1.904-2.387 1.904-2.302 1.904-2.257 1.904-2.17 1.904-2.127 1.904-2.085 2.682 1.52 2.683 1.606zm32.282-22.488l.303 1.129.259 1.172.216 1.129.174 1.216.129 1.171.13 1.173.044 1.215.043 1.216-.043 1.085-.044 1.085-.086 1.086-.086 1.041-.347 2.085-.433 2.04-1.081-1.259-1.169-1.346-1.255-1.389-1.298-1.389-1.428-1.476-1.427-1.52-1.558-1.519-1.602-1.563 2.554-1.693 2.639-1.65 2.639-1.563 2.727-1.476zm-.173 19.362l-.519 1.65-.606 1.606-.693 1.563-.736 1.52-.562-.652-.649-.694-.692-.738-.736-.781-.779-.782-.822-.825-.909-.868-.909-.869-.952-.911-1.038-.955-1.038-.956-1.125-.954-1.126-.999-1.212-.999-1.211-1.041-1.255-.999 2.856-2.214 1.428-1.085 1.471-1.042 2.943 2.865 2.986 2.952 2.942 3.039 2.943 3.169zm-2.986 7.12l-1.082 1.78-1.125 1.65-1.255 1.606-1.341 1.52-.562-.652-.607-.694-.692-.738-.736-.825-.822-.869-.909-.911-.952-.955-.995-.998-1.081-1.042-1.125-1.043-1.213-1.085-1.254-1.129-1.299-1.172-1.384-1.172-1.428-1.172-1.471-1.215 2.683-2.345 2.725-2.301 1.991 1.563 1.948 1.606 1.99 1.694 1.948 1.693 1.989 1.736 2.035 1.78 1.99 1.823 2.034 1.867zm-5.279 7.12l-1.385 1.346-1.428 1.259-.606-.565-.649-.607-.736-.695-.865-.695-.866-.781-.995-.825-1.038-.868-1.125-.868-1.212-.955-1.255-.956-1.341-.998-1.428-.998-1.472-1.042-1.514-1.043-1.602-1.041-1.644-1.086 1.905-1.866 1.947-1.781 2.12 1.694 2.163 1.736 2.121 1.824 2.164 1.867 2.164 1.909 2.163 1.955 2.207 1.996 2.207 2.084zm-3.375 3.039l-1.082.825-1.169.825-1.168.738-1.211.694-1.255.652-1.255.607-1.298.564-1.299.522-1.384.434-1.342.391-1.428.347-1.385.261-1.471.216-1.428.174-1.472.087-1.514.043-1.774-.043-1.817-.174-1.731-.217-1.731-.304-1.688-.39-1.688-.521-1.601-.564-1.601-.652 1.991-2.431 1.991-2.344 1.947-2.302 1.991-2.257 1.947-2.17 1.99-2.128 1.947-2.084 1.991-2.04 2.293 1.476 2.337 1.52 2.38 1.606 2.336 1.606 2.38 1.693 2.424 1.737 2.423 1.78 2.424 1.823z"/></defs></svg>