<svg width="156" height="185" xmlns="http://www.w3.org/2000/svg" xmlns:xlink="http://www.w3.org/1999/xlink"><use xlink:href="#path0_fill" transform="translate(10.92 10.88)" fill="#0069B5"/><use xlink:href="#path1_fill" fill="#FFF"/><use xlink:href="#path2_fill" transform="translate(6.24 6.22)" fill="#00345F"/><defs><path id="path0_fill" fill-rule="evenodd" d="M34.32 0H0v34.202h34.32V0zm0 49.748H0v97.941h17.16v15.546H117v-15.546h17.16V0H99.84v130.588H34.32v-80.84z"/><path id="path1_fill" fill-rule="evenodd" d="M0 0h56.16v130.588h43.68V0H156v169.454h-17.16V185H17.16v-15.546H0V0zm110.76 141.471H45.24v-80.84H10.92v97.94h17.16v15.547h99.84v-15.547h17.16V10.882h-34.32v130.589zM45.24 10.882v34.202H10.92V10.882h34.32z"/><path id="path2_fill" fill-rule="evenodd" d="M0 0h43.68v43.53H0V0zm0 49.748h43.68v80.84h56.16V0h43.68v157.017h-17.16v15.546H17.16v-15.546H0V49.747zm21.84 102.605v15.546h99.84v-15.546h17.16V4.663h-34.32v130.589H39v-80.84H4.68v97.941h17.16zM39 4.663v34.203H4.68V4.663H39z"/></defs></svg>