<svg width="310" height="118" viewBox="0 0 310 118" version="1.1" xmlns="http://www.w3.org/2000/svg" xmlns:xlink="http://www.w3.org/1999/xlink">
<title>g4906</title>
<desc>Created using Figma</desc>
<g id="Canvas" transform="translate(3204 -6144)">
<g id="g4906">
<g id="path4910">
<use xlink:href="#path0_fill" transform="matrix(0.567797 0 0 0.550545 -3204 6144)" fill="#00B3DF"/>
</g>
</g>
</g>
<defs>
<path id="path0_fill" fill-rule="evenodd" d="M 289.71 72.5874L 290.879 72.6311L 292.047 72.6747L 293.215 72.7612L 294.384 72.9351L 295.509 73.1081L 296.634 73.282L 297.715 73.5423L 298.841 73.8463L 299.879 74.1504L 300.961 74.498L 302 74.8885L 303.038 75.3227L 304.077 75.7569L 305.072 76.2776L 306.024 76.7983L 307.019 77.3199L 306.283 77.7104L 305.461 78.101L 304.639 78.5351L 303.774 79.013L 302.822 79.5337L 301.87 80.0544L 300.831 80.6624L 299.792 81.2704L 298.711 81.9213L 297.586 82.6159L 296.417 83.3541L 295.249 84.1352L 294.037 84.9606L 292.782 85.7854L 291.528 86.6967L 290.229 87.6087L 288.801 86.784L 287.33 86.0021L 285.946 85.221L 284.561 84.4828L 283.176 83.8319L 281.835 83.1374L 280.536 82.5294L 279.281 81.965L 278.07 81.4006L 276.858 80.8799L 275.69 80.4021L 274.608 79.9242L 273.526 79.5337L 272.531 79.1431L 271.536 78.7526L 270.627 78.4486L 271.665 77.7541L 272.747 77.146L 273.829 76.538L 274.911 75.9736L 276.079 75.4529L 277.205 74.9751L 278.372 74.5409L 279.584 74.1504L 280.796 73.8035L 282.008 73.4558L 283.263 73.1954L 284.518 72.978L 285.816 72.8049L 287.113 72.7176L 288.412 72.6311L 289.71 72.5874ZM 421.432 107.145L 421.432 108.274L 421.519 109.359L 421.649 110.444L 421.865 111.486L 422.081 112.528L 422.384 113.527L 422.73 114.525L 423.119 115.523L 423.509 116.479L 423.985 117.39L 424.504 118.302L 425.067 119.171L 425.673 119.995L 426.279 120.82L 426.971 121.601L 427.663 122.339L 428.399 123.034L 429.178 123.728L 430 124.336L 430.822 124.944L 431.687 125.509L 432.596 126.03L 433.505 126.507L 434.457 126.942L 435.453 127.332L 436.448 127.679L 437.443 127.94L 438.481 128.2L 439.52 128.374L 440.602 128.504L 441.684 128.591L 442.766 128.635L 443.891 128.591L 444.972 128.504L 446.011 128.374L 447.093 128.2L 448.131 127.94L 449.127 127.679L 450.122 127.332L 451.074 126.942L 452.026 126.507L 452.935 126.03L 453.843 125.509L 454.709 124.944L 455.531 124.336L 456.353 123.728L 457.132 123.034L 457.868 122.339L 458.603 121.601L 459.252 120.82L 459.901 119.995L 460.464 119.171L 461.026 118.302L 461.546 117.39L 462.022 116.479L 462.454 115.523L 462.844 114.525L 463.19 113.527L 463.45 112.528L 463.709 111.486L 463.882 110.444L 464.012 109.359L 464.098 108.274L 464.142 107.145L 464.142 21.4463L 464.098 20.361L 464.012 19.2757L 463.882 18.2337L 463.709 17.1918L 463.493 16.1933L 463.234 15.1948L 462.887 14.2397L 462.541 13.2846L 462.109 12.3295L 461.676 11.4178L 461.199 10.5495L 460.637 9.68128L 460.074 8.85639L 459.468 8.07501L 458.82 7.29354L 458.171 6.55549L 457.651 8.11843L 457.132 9.63786L 456.526 11.1573L 455.877 12.6334L 455.185 14.066L 454.406 15.4987L 453.627 16.888L 452.761 18.2337L 451.896 19.5796L 450.944 20.882L 449.992 22.141L 448.953 23.3566L 447.915 24.5287L 446.79 25.7009L 445.664 26.8296L 444.497 27.8716L 443.285 28.9135L 442.03 29.912L 440.731 30.8671L 439.434 31.7354L 438.092 32.6037L 436.707 33.4285L 435.279 34.1665L 433.851 34.9046L 432.38 35.5558L 430.909 36.1636L 429.351 36.7279L 427.837 37.2489L 426.279 37.683L 424.677 38.1172L 423.033 38.4645L 421.432 38.7249L 421.432 107.145ZM 339.604 11.2875L 340.339 10.072L 341.118 8.89981L 341.983 7.77107L 342.935 6.68575L 343.931 5.68727L 345.013 4.77554L 346.138 3.90732L 347.306 3.12585L 348.561 2.43122L 349.859 1.82343L 351.201 1.25906L 352.542 0.824949L 353.97 0.477587L 355.442 0.217159L 356.912 0.043478L 358.427 5.77317e-05L 359.552 0.043478L 360.634 0.130319L 361.672 0.260579L 362.755 0.434167L 363.793 0.694688L 364.788 0.955116L 365.783 1.30248L 366.735 1.69317L 367.688 2.12737L 368.596 2.6049L 369.505 3.12585L 370.371 3.6468L 371.193 4.25459L 372.015 4.9058L 372.793 5.55701L 373.529 6.29506L 374.265 7.03302L 374.914 7.81449L 375.563 8.59596L 376.126 9.46418L 376.688 10.3325L 377.207 11.2008L 377.684 12.1559L 378.116 13.0675L 378.506 14.066L 378.851 15.0646L 379.112 16.0631L 379.371 17.105L 379.544 18.147L 379.674 19.2323L 379.76 20.3176L 379.804 21.4463L 379.804 60.5186L 378.982 58.6518L 378.116 56.8284L 377.207 55.005L 376.299 53.1816L 375.347 51.4017L 374.395 49.6217L 373.356 47.8852L 372.318 46.1486L 371.279 44.4556L 370.197 42.7624L 369.072 41.1127L 367.904 39.463L 366.735 37.8133L 365.524 36.207L 364.313 34.6441L 363.058 33.0812L 361.759 31.5184L 360.461 29.9988L 359.119 28.5227L 357.735 27.0467L 356.35 25.5706L 354.965 24.1814L 353.537 22.7488L 352.066 21.4029L 350.595 20.0138L 349.081 18.7113L 347.565 17.4088L 346.008 16.1499L 344.45 14.8909L 342.849 13.6753L 341.248 12.4597L 339.604 11.2875L 339.604 11.2875ZM 272.964 5.77317e-05L 275.733 0.043478L 278.459 0.130319L 281.186 0.304L 283.911 0.564428L 286.594 0.868369L 289.234 1.25906L 291.874 1.69317L 294.513 2.1707L 297.11 2.73516L 299.663 3.38628L 302.216 4.08091L 304.725 4.81896L 307.236 5.64385L 309.702 6.51207L 312.125 7.4238L 314.549 8.42228L 316.929 9.46418L 319.309 10.593L 321.602 11.7217L 323.895 12.9373L 326.145 14.1963L 328.353 15.5421L 330.559 16.888L 332.68 18.3206L 334.8 19.7967L 336.877 21.3161L 338.911 22.879L 340.945 24.4853L 342.893 26.135L 344.796 27.8282L 346.657 29.6081L 348.518 31.3881L 350.292 33.2115L 352.066 35.1217L 353.754 37.0318L 355.398 38.9854L 356.999 41.0258L 358.557 43.0663L 360.072 45.1502L 361.543 47.234L 362.971 49.4047L 364.312 51.6188L 365.654 53.8329L 366.908 56.0903L 368.12 58.3913L 369.246 60.6922L 370.371 63.08L 371.409 65.4677L 372.404 67.8557L 373.313 70.3299L 374.179 72.8049L 375.001 75.2791L 375.736 77.8406L 376.429 80.3584L 377.078 82.9636L 377.64 85.5679L 378.116 88.173L 378.549 90.8211L 378.938 93.5128L 379.241 96.2044L 379.501 98.8961L 379.674 101.631L 379.76 104.41L 379.804 107.145L 379.76 109.533L 379.804 109.576L 379.804 111.182L 379.89 112.745L 379.977 114.308L 380.107 115.914L 380.28 117.434L 380.496 118.997L 380.756 120.516L 381.059 122.035L 381.362 123.555L 381.751 125.031L 382.14 126.507L 382.573 127.983L 383.05 129.416L 383.525 130.848L 384.088 132.281L 384.65 133.67L 385.256 135.059L 385.862 136.406L 386.555 137.751L 387.247 139.054L 387.983 140.399L 388.718 141.659L 389.497 142.918L 390.319 144.177L 391.185 145.392L 392.05 146.608L 392.958 147.78L 393.868 148.952L 394.863 150.081L 395.815 151.209L 396.853 152.295L 397.892 153.337L 398.93 154.379L 400.012 155.378L 401.137 156.375L 402.262 157.331L 403.387 158.286L 404.599 159.154L 405.767 160.066L 407.023 160.891L 408.234 161.716L 409.489 162.497L 410.787 163.279L 412.086 164.016L 413.427 164.711L 414.768 165.362L 416.11 166.013L 417.494 166.621L 418.879 167.186L 420.307 167.706L 421.735 168.228L 423.163 168.705L 424.635 169.139L 426.105 169.53L 427.577 169.877L 429.091 170.225L 430.606 170.485L 432.12 170.746L 433.678 170.962L 435.193 171.136L 436.751 171.31L 438.352 171.397L 439.909 171.44L 441.511 171.484L 443.111 171.44L 444.713 171.397L 446.271 171.31L 447.828 171.136L 449.386 170.962L 450.901 170.746L 452.458 170.485L 453.973 170.225L 455.444 169.877L 456.959 169.53L 458.43 169.139L 459.858 168.705L 461.329 168.228L 462.757 167.706L 464.142 167.186L 465.527 166.621L 466.912 166.013L 468.253 165.362L 469.594 164.711L 470.936 164.016L 472.234 163.279L 473.533 162.497L 474.788 161.716L 476.042 160.891L 477.254 160.066L 478.422 159.154L 479.634 158.286L 480.759 157.331L 481.884 156.375L 483.009 155.378L 484.091 154.379L 485.173 153.337L 486.168 152.295L 487.206 151.209L 488.159 150.081L 489.154 148.952L 490.062 147.78L 490.971 146.608L 491.837 145.392L 492.702 144.177L 493.525 142.918L 494.303 141.659L 495.039 140.399L 495.775 139.054L 496.467 137.751L 497.159 136.406L 497.765 135.059L 498.371 133.67L 498.933 132.281L 499.496 130.848L 499.972 129.416L 500.448 127.983L 500.88 126.507L 501.27 125.031L 501.66 123.555L 501.963 122.035L 502.266 120.516L 502.525 118.997L 502.741 117.434L 502.914 115.914L 503.044 114.308L 503.131 112.745L 503.217 111.182L 503.217 109.576L 503.217 25.0062L 503.217 21.4463L 503.261 20.3176L 503.347 19.2323L 503.477 18.147L 503.65 17.105L 503.91 16.0631L 504.169 15.0646L 504.516 14.066L 504.905 13.0675L 505.338 12.1559L 505.813 11.2008L 506.333 10.3325L 506.896 9.46418L 507.458 8.59596L 508.107 7.81449L 508.757 7.03302L 509.492 6.29506L 510.227 5.55701L 511.007 4.9058L 511.829 4.25459L 512.651 3.6468L 513.516 3.12585L 514.425 2.6049L 515.334 2.12737L 516.286 1.69317L 517.237 1.30248L 518.233 0.955116L 519.228 0.694688L 520.267 0.434167L 521.349 0.260579L 522.387 0.130319L 523.469 0.043478L 524.594 5.77317e-05L 525.675 0.043478L 526.758 0.130319L 527.839 0.260579L 528.878 0.434167L 529.916 0.694688L 530.955 0.955116L 531.95 1.30248L 532.902 1.69317L 533.854 2.12737L 534.763 2.6049L 535.672 3.12585L 536.537 3.6468L 537.36 4.25459L 538.182 4.9058L 538.96 5.55701L 539.696 6.29506L 540.388 7.03302L 541.081 7.81449L 541.73 8.59596L 542.293 9.46418L 542.855 10.3325L 543.374 11.2008L 543.851 12.1559L 544.283 13.0675L 544.673 14.066L 545.018 15.0646L 545.278 16.0631L 545.538 17.105L 545.711 18.147L 545.841 19.2323L 545.928 20.3176L 545.97 21.4463L 545.97 109.576L 545.928 112.267L 545.841 114.959L 545.668 117.608L 545.408 120.299L 545.106 122.904L 544.759 125.509L 544.326 128.113L 543.851 130.675L 543.288 133.236L 542.682 135.754L 541.99 138.229L 541.254 140.703L 540.475 143.178L 539.61 145.609L 538.701 147.997L 537.749 150.341L 536.754 152.686L 535.672 154.986L 534.547 157.287L 533.335 159.501L 532.124 161.716L 530.825 163.886L 529.527 166.057L 528.142 168.141L 526.671 170.225L 525.2 172.265L 523.686 174.262L 522.128 176.216L 520.483 178.126L 518.839 180.036L 517.108 181.859L 515.377 183.64L 513.559 185.419L 511.742 187.112L 509.882 188.806L 507.934 190.412L 505.987 192.018L 503.996 193.538L 501.963 195.014L 499.928 196.446L 497.808 197.835L 495.688 199.182L 493.525 200.483L 491.317 201.7L 489.067 202.872L 486.817 204.001L 484.524 205.086L 482.187 206.128L 479.807 207.083L 477.427 207.994L 475.003 208.819L 472.58 209.644L 470.114 210.382L 467.604 211.033L 465.094 211.641L 462.584 212.206L 459.988 212.727L 457.435 213.117L 454.838 213.508L 452.199 213.812L 449.56 214.029L 446.877 214.202L 444.236 214.29L 441.511 214.333L 438.308 214.29L 435.15 214.159L 431.99 213.899L 428.875 213.595L 425.76 213.161L 422.73 212.64L 419.658 212.032L 416.672 211.38L 413.686 210.599L 410.787 209.731L 407.887 208.776L 405.032 207.777L 402.176 206.649L 399.407 205.476L 396.68 204.217L 393.954 202.872L 391.314 201.482L 388.718 200.006L 386.165 198.444L 383.655 196.794L 381.189 195.101L 378.765 193.364L 376.429 191.497L 374.135 189.63L 371.885 187.677L 369.678 185.637L 367.558 183.552L 365.48 181.425L 363.49 179.211L 361.543 176.954L 359.639 174.653L 357.822 172.265L 355.961 174.653L 354.056 176.954L 352.066 179.211L 349.989 181.425L 347.868 183.552L 345.705 185.637L 343.498 187.677L 341.205 189.63L 338.868 191.541L 336.488 193.364L 334.022 195.144L 331.511 196.837L 329.002 198.444L 326.406 200.006L 323.766 201.482L 321.04 202.915L 318.313 204.217L 315.544 205.476L 312.732 206.692L 309.875 207.777L 306.976 208.776L 304.077 209.731L 301.091 210.599L 298.105 211.38L 295.033 212.032L 291.96 212.64L 288.888 213.161L 285.772 213.595L 282.613 213.899L 279.411 214.159L 276.209 214.29L 272.964 214.333L 196.155 214.333L 197.626 213.421L 199.054 212.466L 200.482 211.511L 201.91 210.513L 203.252 209.471L 204.593 208.385L 205.935 207.3L 207.232 206.171L 208.487 204.999L 209.743 203.783L 210.954 202.568L 212.123 201.352L 213.29 200.05L 214.416 198.79L 215.541 197.445L 216.579 196.099L 217.618 194.71L 218.656 193.321L 219.609 191.888L 220.561 190.455L 221.469 188.979L 222.335 187.503L 223.2 185.984L 224.022 184.465L 224.802 182.902L 225.537 181.339L 226.23 179.732L 226.922 178.126L 227.527 176.476L 228.133 174.827L 228.696 173.177L 229.215 171.484L 272.964 171.484L 274.608 171.44L 276.253 171.397L 277.853 171.266L 279.498 171.136L 281.099 170.962L 282.657 170.746L 284.258 170.485L 285.816 170.181L 287.33 169.834L 288.888 169.487L 290.402 169.053L 291.917 168.618L 293.388 168.141L 294.86 167.62L 296.331 167.099L 297.759 166.491L 299.187 165.883L 300.572 165.232L 301.956 164.538L 303.341 163.843L 304.683 163.061L 305.981 162.28L 307.279 161.498L 308.577 160.63L 309.832 159.762L 311.087 158.894L 312.299 157.938L 313.51 156.983L 314.679 156.028L 315.804 154.986L 316.929 153.988L 318.054 152.903L 319.093 151.818L 320.131 150.689L 321.17 149.56L 322.165 148.388L 323.117 147.215L 324.069 146L 324.978 144.784L 325.843 143.525L 326.708 142.223L 327.531 140.921L 328.309 139.618L 329.089 138.273L 329.824 136.926L 330.516 135.537L 331.166 134.148L 331.814 132.715L 332.42 131.283L 332.983 129.85L 333.502 128.374L 333.978 126.898L 334.454 125.379L 334.887 123.859L 335.277 122.339L 335.622 120.82L 335.925 119.257L 336.228 117.651L 336.444 116.088L 336.661 114.482L 336.834 112.875L 336.921 111.269L 337.007 109.619L 337.05 107.97L 337.05 106.407L 337.007 104.757L 336.921 103.151L 336.834 101.544L 336.661 99.9383L 336.488 98.3754L 336.228 96.8125L 335.969 95.2932L 335.666 93.7303L 335.319 92.2102L 334.93 90.691L 334.541 89.2153L 334.108 87.7389L 333.589 86.2625L 333.113 84.8305L 332.55 83.3978L 331.944 81.965L 331.339 80.576L 330.689 79.1861L 330.04 77.8406L 329.305 76.4951L 328.569 75.1489L 327.79 73.8464L 327.011 72.5438L 326.189 71.2849L 325.323 70.0696L 324.458 68.8107L 323.549 67.6383L 322.598 66.4662L 321.602 65.2941L 320.65 64.1653L 319.612 63.0366L 318.573 61.9513L 317.491 60.9094L 316.41 59.8674L 315.285 58.8689L 314.16 57.8704L 312.991 56.9153L 311.779 56.0036L 310.611 55.0919L 309.356 54.2237L 308.101 53.3554L 306.846 52.5739L 305.548 51.7925L 304.25 51.0111L 302.908 50.273L 301.567 49.5784L 300.182 48.9272L 298.798 48.276L 297.412 47.7116L 295.984 47.1472L 294.557 46.5828L 293.085 46.1052L 291.615 45.6278L 290.143 45.1936L 288.629 44.8029L 287.114 44.4556L 285.599 44.1083L 284.085 43.8043L 282.527 43.5873L 280.969 43.3702L 279.368 43.1966L 277.81 43.0229L 276.209 42.9361L 274.608 42.8927L 272.964 42.8493L 187.5 42.8493L 135.314 42.8493L 134.189 42.8493L 133.106 42.7624L 132.025 42.6322L 130.986 42.4152L 129.948 42.1981L 128.953 41.8942L 127.957 41.5468L 126.962 41.1562L 126.053 40.7654L 125.101 40.2879L 124.235 39.7669L 123.327 39.2025L 122.505 38.5947L 121.682 37.987L 120.947 37.2924L 120.168 36.5977L 119.476 35.8597L 118.827 35.0783L 118.177 34.2534L 117.572 33.4285L 117.009 32.5603L 116.49 31.6486L 116.014 30.7369L 115.624 29.7818L 115.235 28.7833L 114.889 27.7848L 114.586 26.7862L 114.369 25.7443L 114.153 24.7024L 114.024 23.6171L 113.937 22.5317L 113.937 21.4464L 113.937 20.3177L 114.024 19.2323L 114.153 18.147L 114.369 17.105L 114.586 16.0631L 114.889 15.0646L 115.235 14.0661L 115.624 13.0675L 116.014 12.1559L 116.49 11.2008L 117.009 10.3325L 117.572 9.46422L 118.177 8.59601L 118.827 7.81454L 119.476 7.03306L 120.168 6.29511L 120.947 5.55706L 121.682 4.90585L 122.505 4.25464L 123.327 3.64685L 124.235 3.1259L 125.101 2.60495L 126.053 2.12742L 126.962 1.69321L 127.957 1.30253L 128.953 0.955163L 129.948 0.694735L 130.986 0.434214L 132.025 0.260626L 133.106 0.130365L 134.189 0.0435247L 135.314 1.09929e-05L 272.964 1.09929e-05L 272.964 5.77317e-05ZM 63.8706 128.635L 62.2257 128.591L 60.5816 128.547L 58.9802 128.417L 57.3361 128.287L 55.7348 128.07L 54.1342 127.853L 52.5763 127.592L 51.0185 127.288L 49.4606 126.942L 47.9027 126.55L 46.3884 126.116L 44.874 125.683L 43.4024 125.205L 41.9308 124.64L 40.46 124.076L 39.0319 123.512L 37.6038 122.861L 36.1757 122.209L 34.7911 121.515L 33.45 120.776L 32.0647 120.038L 30.7671 119.213L 29.4687 118.389L 28.1704 117.564L 26.9156 116.652L 25.6607 115.741L 24.449 114.829L 23.2374 113.83L 22.069 112.875L 20.944 111.834L 19.8188 110.792L 18.6937 109.706L 17.6552 108.578L 16.6167 107.449L 15.5781 106.32L 14.5829 105.148L 13.6308 103.932L 12.6789 102.716L 11.7702 101.458L 10.9047 100.199L 10.0825 98.896L 9.26036 97.5935L 8.48143 96.248L 7.7025 94.9018L 7.01012 93.5127L 6.31775 92.1236L 5.66873 90.7345L 5.01964 89.3017L 4.4571 87.8254L 3.89449 86.3497L 3.37523 84.8733L 2.89925 83.3977L 2.42326 81.8776L 2.03384 80.3584L 1.64433 78.7954L 1.29819 77.2325L 0.995245 75.6696L 0.73565 74.0638L 0.51926 72.4572L 0.346148 70.8506L 0.216316 69.2448L 0.086554 67.5946L 0.0432805 65.9452L 1.23511e-06 64.2955L 0.0432805 62.6458L 0.086554 60.996L 0.216316 59.3463L 0.346148 57.7401L 0.51926 56.1337L 0.73565 54.5274L 0.995245 52.9212L 1.29819 51.3582L 1.64433 49.7954L 2.03384 48.2324L 2.42326 46.7129L 2.89925 45.1935L 3.37523 43.674L 3.89449 42.198L 4.4571 40.7219L 5.06292 39.2893L 5.66873 37.8566L 6.31775 36.424L 7.01012 35.0347L 7.74577 33.6455L 8.48143 32.2997L 9.30363 30.9538L 10.1258 29.6515L 10.948 28.3491L 11.8134 27.0901L 12.7221 25.8311L 13.6741 24.6155L 14.6261 23.3999L 15.6214 22.2278L 16.66 21.0556L 17.6985 19.9269L 18.7803 18.8415L 19.8621 17.7561L 20.9872 16.7141L 22.1556 15.6722L 23.324 14.6738L 24.5356 13.7186L 25.7472 12.7636L 27.0021 11.8519L 28.2567 10.9836L 29.555 10.1588L 30.8533 9.33392L 32.1952 8.50903L 33.5363 7.77102L 34.9209 7.03297L 36.3055 6.33839L 37.7336 5.68718L 39.1617 5.07939L 40.5898 4.4716L 42.0606 3.90723L 43.5322 3.38623L 45.0465 2.9087L 46.5617 2.43117L 48.076 2.04048L 49.6339 1.6497L 51.1917 1.30243L 52.7496 0.99849L 54.3502 0.738062L 55.9515 0.520961L 57.5529 0.34728L 59.1535 0.217112L 60.7984 0.0868515L 62.4425 0.0434313L 64.0866 1.09929e-05L 64.1736 1.09929e-05L 112.595 1.09929e-05L 111.557 1.04191L 110.561 2.12732L 109.609 3.25606L 108.744 4.42822L 107.922 5.64376L 107.186 6.90276L 106.494 8.20518L 105.845 9.55097L 105.282 10.9402L 104.806 12.3729L 104.373 13.8055L 104.028 15.2816L 103.768 16.801L 103.551 18.3205L 103.422 19.8835L 103.378 21.4463L 103.422 23.0092L 103.551 24.5721L 103.768 26.0915L 104.028 27.611L 104.373 29.0871L 104.806 30.5197L 105.282 31.909L 105.845 33.2982L 106.494 34.644L 107.186 35.9464L 107.922 37.2054L 108.744 38.421L 109.609 39.6365L 110.561 40.7653L 111.557 41.8073L 112.595 42.8492L 64.0866 42.8492L 62.9615 42.8926L 61.8799 42.9794L 60.8411 43.1096L 59.7596 43.2833L 58.7207 43.5438L 57.7254 43.8042L 56.7301 44.1516L 55.7783 44.5424L 54.8265 44.9764L 53.9174 45.454L 53.0091 45.975L 52.1435 46.5393L 51.3215 47.1037L 50.4994 47.7549L 49.7201 48.4495L 48.9843 49.1442L 48.2493 49.8822L 47.5997 50.6636L 46.9509 51.4885L 46.3884 52.3134L 45.8259 53.1816L 45.3061 54.0933L 44.8305 55.005L 44.3978 55.9601L 44.0085 56.9152L 43.662 57.9137L 43.4024 58.9557L 43.1429 59.9976L 42.9697 61.0395L 42.8399 62.1248L 42.7537 63.2101L 42.7101 64.2955L 42.7537 65.4242L 42.8399 66.5096L 42.9697 67.5517L 43.1429 68.6368L 43.4024 69.679L 43.662 70.6775L 44.0085 71.6761L 44.3978 72.631L 44.8305 73.5859L 45.3061 74.498L 45.8259 75.4092L 46.3884 76.2776L 46.9509 77.1023L 47.5997 77.927L 48.2493 78.7089L 48.9843 79.4471L 49.7201 80.1845L 50.4994 80.8362L 51.3215 81.4871L 52.1435 82.0515L 53.0091 82.6159L 53.9174 83.1373L 54.8265 83.6144L 55.7783 84.0486L 56.7301 84.4391L 57.7254 84.7868L 58.7207 85.0472L 59.7596 85.3075L 60.8411 85.4813L 61.8799 85.6115L 62.9615 85.698L 64.0866 85.7417L 157.253 85.7417L 157.469 85.7417L 159.114 85.7417L 160.758 85.8282L 162.402 85.9155L 164.003 86.0457L 165.604 86.2624L 167.205 86.4799L 168.806 86.7403L 170.364 87.0443L 171.922 87.3912L 173.48 87.7388L 174.994 88.173L 176.509 88.6072L 178.024 89.1279L 179.495 89.6486L 180.966 90.213L 182.394 90.7774L 183.822 91.4291L 185.25 92.0799L 186.635 92.7745L 187.976 93.5127L 189.361 94.2509L 190.703 95.032L 192 95.8575L 193.299 96.7251L 194.553 97.5935L 195.808 98.5055L 197.02 99.4604L 198.232 100.415L 199.4 101.414L 200.525 102.456L 201.65 103.498L 202.775 104.583L 203.857 105.668L 204.896 106.797L 205.891 107.97L 206.887 109.142L 207.882 110.357L 208.79 111.573L 209.699 112.831L 210.608 114.091L 211.43 115.393L 212.252 116.696L 213.031 118.042L 213.81 119.387L 214.545 120.776L 215.238 122.165L 215.887 123.598L 216.493 125.031L 217.098 126.464L 217.661 127.94L 218.181 129.416L 218.656 130.935L 219.133 132.455L 219.522 133.974L 219.911 135.537L 220.258 137.1L 220.561 138.663L 220.82 140.269L 221.036 141.875L 221.209 143.482L 221.339 145.088L 221.469 146.738L 221.512 148.388L 221.556 150.037L 221.512 151.687L 221.469 153.337L 221.339 154.986L 221.209 156.636L 221.036 158.242L 220.82 159.849L 220.561 161.412L 220.258 163.018L 219.911 164.58L 219.522 166.1L 219.133 167.663L 218.656 169.183L 218.181 170.658L 217.661 172.135L 217.098 173.611L 216.493 175.087L 215.887 176.52L 215.238 177.909L 214.545 179.341L 213.81 180.687L 213.031 182.033L 212.252 183.379L 211.43 184.725L 210.608 185.984L 209.699 187.286L 208.79 188.502L 207.882 189.76L 206.887 190.933L 205.891 192.105L 204.896 193.277L 203.857 194.406L 202.775 195.534L 201.65 196.577L 200.525 197.662L 199.4 198.66L 198.232 199.659L 197.02 200.614L 195.808 201.569L 194.553 202.481L 193.299 203.349L 192 204.217L 190.703 205.042L 189.361 205.824L 187.976 206.605L 186.635 207.299L 185.25 207.994L 183.822 208.646L 182.394 209.297L 180.966 209.905L 179.495 210.425L 178.024 210.946L 176.509 211.468L 174.994 211.902L 173.48 212.336L 171.922 212.683L 170.364 213.03L 168.806 213.335L 167.205 213.595L 165.604 213.812L 164.003 214.029L 162.402 214.159L 160.758 214.246L 159.114 214.333L 157.469 214.333L 157.339 214.333L 21.3767 214.333L 20.2516 214.333L 19.1697 214.246L 18.0879 214.116L 17.0494 213.899L 16.0109 213.681L 15.0156 213.377L 14.0203 213.031L 13.025 212.64L 12.1163 212.249L 11.1644 211.772L 10.2989 211.25L 9.43339 210.686L 8.56798 210.079L 7.78905 209.427L 7.01012 208.776L 6.27455 208.081L 5.5389 207.3L 4.8898 206.561L 4.24071 205.737L 3.6349 204.912L 3.11564 204.001L 2.59637 203.132L 2.12032 202.177L 1.68761 201.265L 1.29819 200.267L 0.951965 199.268L 0.692371 198.27L 0.432707 197.228L 0.25959 196.186L 0.129833 195.101L 0.0432805 194.015L 1.23511e-06 192.886L 0.0432805 191.801L 0.129833 190.716L 0.25959 189.63L 0.432707 188.589L 0.692371 187.547L 0.951965 186.548L 1.29819 185.549L 1.68761 184.595L 2.12032 183.64L 2.5531 182.728L 3.07236 181.816L 3.6349 180.948L 4.24071 180.122L 4.84653 179.298L 5.5389 178.517L 6.23127 177.778L 6.96684 177.084L 7.74577 176.389L 8.5247 175.781L 9.39011 175.173L 10.2556 174.609L 11.1211 174.088L 12.0298 173.611L 12.9818 173.177L 13.9338 172.786L 14.929 172.482L 15.9243 172.178L 16.9628 171.918L 18.0014 171.744L 19.0832 171.614L 20.165 171.527L 21.2468 171.484L 157.469 171.484L 158.551 171.44L 159.633 171.354L 160.714 171.223L 161.753 171.05L 162.792 170.789L 163.787 170.528L 164.782 170.181L 165.778 169.791L 166.73 169.357L 167.638 168.879L 168.547 168.358L 169.412 167.794L 170.235 167.229L 171.057 166.578L 171.836 165.927L 172.571 165.188L 173.263 164.45L 173.956 163.669L 174.562 162.844L 175.168 162.02L 175.73 161.151L 176.249 160.239L 176.725 159.328L 177.115 158.372L 177.504 157.417L 177.851 156.419L 178.154 155.42L 178.37 154.379L 178.586 153.293L 178.716 152.252L 178.802 151.166L 178.802 150.037L 178.802 148.952L 178.716 147.867L 178.586 146.781L 178.37 145.74L 178.154 144.697L 177.851 143.699L 177.504 142.7L 177.115 141.702L 176.725 140.747L 176.249 139.835L 175.73 138.923L 175.168 138.055L 174.562 137.23L 173.956 136.406L 173.263 135.624L 172.571 134.886L 171.836 134.191L 171.057 133.496L 170.235 132.889L 169.412 132.281L 168.547 131.717L 167.638 131.196L 166.73 130.718L 165.778 130.328L 164.782 129.937L 163.787 129.589L 162.792 129.285L 161.753 129.069L 160.714 128.851L 159.633 128.721L 158.551 128.635L 157.469 128.635L 63.8706 128.635L 63.8706 128.635ZM 289.321 88.3033L 287.417 89.7796L 285.426 91.3418L 283.479 92.9484L 281.488 94.6852L 280.017 94.0335L 278.546 93.3826L 277.118 92.7746L 275.733 92.1673L 274.348 91.6458L 273.007 91.1251L 271.665 90.6473L 270.367 90.1702L 269.156 89.736L 267.944 89.3454L 266.732 88.9541L 265.607 88.6073L 264.526 88.3033L 263.487 87.9992L 262.492 87.7389L 261.54 87.4785L 262.492 86.1759L 263.443 84.9606L 264.482 83.7883L 265.521 82.6596L 266.646 81.5744L 267.814 80.5759L 269.026 79.5773L 270.281 78.6653L 272.834 79.7075L 275.3 80.7489L 277.724 81.8777L 280.104 83.0501L 282.483 84.309L 284.777 85.5679L 287.071 86.9141L 289.321 88.3033ZM 280.623 95.4662L 279.281 96.7252L 277.94 97.9841L 276.599 99.2866L 275.257 100.633L 272.834 99.547L 270.497 98.5056L 268.204 97.5507L 265.954 96.7252L 263.833 95.9004L 261.799 95.2059L 259.852 94.555L 258.943 94.2946L 258.035 93.9906L 258.727 92.384L 259.506 90.7774L 260.415 89.2582L 261.323 87.7825L 263.876 88.5636L 266.343 89.3884L 268.809 90.2567L 271.233 91.2116L 273.613 92.1673L 275.992 93.2088L 278.33 94.3375L 280.623 95.4662ZM 274.478 101.501L 272.487 103.629L 270.54 105.886L 269.632 106.971L 268.723 108.013L 266.949 107.405L 265.218 106.841L 263.53 106.32L 261.843 105.842L 260.198 105.365L 258.597 104.93L 257.083 104.54L 255.568 104.193L 255.698 102.934L 255.871 101.674L 256.088 100.415L 256.347 99.2001L 256.65 97.9841L 256.996 96.8125L 257.385 95.5964L 257.818 94.4677L 259.982 95.2059L 262.102 95.9877L 264.223 96.7688L 266.3 97.6372L 268.376 98.5484L 270.411 99.5041L 272.445 100.459L 274.478 101.501ZM 267.987 108.968L 266.603 110.705L 265.262 112.441L 264.006 114.178L 262.795 115.827L 261.669 117.434L 260.631 118.997L 259.635 120.472L 258.727 121.905L 257.991 120.212L 257.299 118.476L 256.78 116.696L 256.304 114.829L 255.914 112.962L 255.655 111.052L 255.525 109.142L 255.438 107.145L 255.482 106.016L 255.525 104.844L 258.684 105.756L 261.843 106.711L 264.915 107.796L 267.987 108.968L 267.987 108.968ZM 307.279 77.4929L 309.053 78.6217L 310.741 79.8813L 312.341 81.2268L 313.857 82.6596L 313.121 83.0501L 312.341 83.4406L 311.519 83.8748L 310.654 84.3527L 309.746 84.8734L 308.794 85.4378L 307.841 86.0021L 306.846 86.6102L 305.85 87.2182L 304.769 87.8691L 303.687 88.5636L 302.606 89.3018L 301.481 90.0829L 300.355 90.8647L 299.187 91.6895L 298.018 92.5578L 296.245 91.3418L 294.513 90.2131L 292.782 89.128L 291.095 88.0865L 292.999 86.6538L 294.903 85.221L 296.893 83.8319L 298.884 82.4857L 300.918 81.1831L 302.995 79.9242L 305.115 78.6653L 307.279 77.4929ZM 296.85 93.4262L 295.12 94.7288L 293.432 96.1179L 291.657 97.5507L 289.927 99.0699L 288.109 98.0714L 286.291 97.1165L 284.518 96.1608L 282.786 95.2932L 284.604 93.6429L 286.421 91.9935L 288.282 90.3869L 290.186 88.824L 291.874 89.9098L 293.562 91.0815L 295.206 92.2102L 296.85 93.4262ZM 288.801 100.068L 287.503 101.24L 286.205 102.5L 284.907 103.759L 283.608 105.061L 281.878 104.063L 280.147 103.107L 278.459 102.239L 276.772 101.371L 279.325 98.7223L 281.921 96.1179L 285.383 98.0277L 288.801 100.068ZM 282.57 106.103L 280.536 108.317L 278.546 110.618L 277.724 111.616L 275.906 110.792L 274.045 110.01L 272.228 109.315L 270.411 108.621L 271.795 106.971L 273.18 105.408L 275.95 102.282L 279.281 104.149L 282.57 106.103ZM 276.772 112.789L 275.733 114.048L 274.738 115.35L 273.786 116.565L 272.834 117.824L 271.925 119.04L 271.059 120.212L 270.237 121.384L 269.459 122.513L 268.679 123.642L 267.987 124.727L 267.295 125.769L 266.646 126.768L 265.997 127.766L 265.434 128.721L 264.915 129.59L 264.396 130.458L 263.66 129.633L 262.968 128.808L 262.318 127.94L 261.669 127.072L 261.063 126.16L 260.458 125.205L 259.896 124.293L 259.376 123.294L 261.929 119.691L 264.482 116.219L 267.035 112.875L 269.632 109.619L 273.223 111.138L 274.997 111.92L 276.772 112.789ZM 314.073 82.8762L 314.852 83.7017L 315.587 84.4828L 316.279 85.3512L 316.972 86.2196L 317.621 87.1309L 318.227 88.0429L 318.832 88.9541L 319.395 89.9098L 317.924 90.6473L 316.323 91.4291L 314.635 92.3404L 312.861 93.296L 311.044 94.3375L 309.139 95.4233L 307.192 96.6386L 305.158 97.9412L 303.558 96.6386L 302 95.4233L 300.398 94.2509L 298.798 93.0786L 300.615 91.6895L 302.433 90.344L 304.293 88.9978L 306.154 87.6952L 308.101 86.4363L 310.049 85.221L 312.039 84.0486L 314.073 82.8762ZM 303.731 98.8525L 302.129 99.9812L 300.485 101.154L 298.841 102.37L 297.196 103.629L 295.682 102.586L 294.124 101.631L 292.609 100.676L 291.095 99.7645L 292.696 98.2881L 294.34 96.8125L 295.984 95.4233L 297.629 94.0335L 300.701 96.3783L 303.731 98.8525ZM 295.855 104.67L 294.513 105.799L 293.129 106.927L 291.787 108.144L 290.446 109.359L 287.719 107.535L 286.335 106.711L 284.994 105.886L 287.503 103.281L 290.013 100.807L 292.956 102.716L 295.855 104.67ZM 289.191 110.488L 287.244 112.398L 285.296 114.352L 284.691 115.002L 282.008 113.613L 279.325 112.311L 281.661 109.619L 283.955 107.015L 286.594 108.708L 289.191 110.488ZM 283.522 116.219L 282.267 117.608L 281.055 118.953L 279.887 120.299L 278.762 121.601L 277.68 122.904L 276.685 124.163L 275.69 125.379L 274.781 126.594L 273.872 127.766L 273.05 128.895L 272.228 129.98L 271.492 131.022L 270.8 132.021L 270.151 132.976L 269.545 133.888L 268.982 134.713L 267.987 133.931L 267.035 133.062L 266.084 132.195L 265.174 131.283L 266.819 128.895L 268.42 126.55L 270.064 124.25L 271.709 122.035L 273.353 119.821L 274.997 117.694L 276.642 115.567L 278.33 113.527L 280.926 114.872L 283.522 116.219ZM 319.612 90.2567L 320.477 91.9062L 321.256 93.6429L 321.905 95.3797L 322.511 97.203L 321.256 97.811L 319.957 98.5056L 318.573 99.2001L 317.232 99.9383L 315.804 100.763L 314.332 101.588L 312.861 102.456L 311.39 103.411L 310.091 102.196L 308.75 100.98L 307.366 99.7645L 305.938 98.5484L 307.539 97.4197L 309.226 96.3346L 310.871 95.2495L 312.602 94.2073L 314.289 93.1659L 316.063 92.1673L 317.794 91.2116L 319.612 90.2567ZM 309.919 104.323L 308.404 105.322L 306.889 106.363L 305.375 107.405L 303.861 108.534L 302.129 107.188L 300.355 105.842L 298.321 104.41L 301.394 101.935L 304.553 99.547L 307.236 101.892L 309.919 104.323ZM 302.475 109.576L 301.091 110.661L 299.706 111.746L 298.278 112.919L 296.893 114.091L 295.336 112.875L 293.691 111.66L 292.74 110.965L 291.744 110.271L 294.384 107.839L 297.023 105.495L 299.75 107.492L 302.475 109.576ZM 295.639 115.22L 293.865 116.869L 292.047 118.563L 291.615 118.997L 289.84 117.912L 287.936 116.826L 286.205 115.827L 288.369 113.613L 290.532 111.442L 293.085 113.309L 295.639 115.22ZM 290.402 120.212L 289.061 121.558L 287.807 122.904L 286.594 124.206L 285.426 125.509L 284.301 126.811L 283.219 128.027L 282.18 129.242L 281.229 130.458L 280.277 131.587L 279.411 132.715L 278.589 133.801L 277.81 134.799L 277.075 135.798L 276.383 136.753L 275.776 137.621L 275.17 138.489L 273.786 137.795L 272.401 137.013L 271.059 136.188L 269.805 135.32L 271.709 132.846L 273.613 130.414L 275.517 128.027L 277.421 125.725L 279.325 123.468L 281.229 121.298L 283.133 119.171L 285.037 117.086L 287.719 118.606L 290.402 120.212ZM 322.684 97.7237L 322.987 98.8525L 323.246 100.025L 323.462 101.154L 323.636 102.37L 323.765 103.541L 323.895 104.714L 323.939 105.929L 323.982 107.145L 323.939 108.23L 323.895 109.315L 323.809 110.401L 323.723 111.442L 323.376 113.527L 322.943 115.567L 321.862 114.308L 320.693 112.962L 319.438 111.573L 318.14 110.184L 316.712 108.708L 315.285 107.188L 313.727 105.669L 312.125 104.106L 314.679 102.413L 317.318 100.763L 319.957 99.2001L 322.684 97.7237ZM 322.511 117.086L 321.992 118.736L 321.386 120.342L 320.693 121.905L 319.957 123.425L 319.395 122.773L 318.746 122.079L 318.054 121.341L 317.318 120.56L 316.539 119.778L 315.717 118.953L 314.808 118.085L 313.899 117.216L 312.947 116.305L 311.909 115.35L 310.871 114.394L 309.746 113.44L 308.62 112.441L 307.408 111.442L 306.197 110.401L 304.942 109.402L 307.798 107.188L 309.226 106.103L 310.697 105.061L 313.64 107.926L 316.626 110.878L 319.568 113.917L 322.511 117.086ZM 319.525 124.206L 318.443 125.986L 317.318 127.636L 316.063 129.242L 314.722 130.762L 314.16 130.11L 313.553 129.416L 312.861 128.678L 312.125 127.853L 311.303 126.984L 310.394 126.073L 309.442 125.118L 308.447 124.12L 307.366 123.078L 306.241 122.035L 305.028 120.95L 303.774 119.821L 302.475 118.649L 301.091 117.477L 299.663 116.305L 298.192 115.09L 300.875 112.745L 303.6 110.444L 305.591 112.007L 307.539 113.613L 309.529 115.307L 311.477 117L 313.466 118.736L 315.501 120.516L 317.491 122.339L 319.525 124.206ZM 314.246 131.326L 312.861 132.672L 311.433 133.931L 310.827 133.366L 310.178 132.759L 309.442 132.064L 308.577 131.369L 307.711 130.588L 306.716 129.763L 305.678 128.895L 304.553 128.027L 303.341 127.072L 302.086 126.116L 300.745 125.118L 299.317 124.12L 297.845 123.078L 296.331 122.035L 294.729 120.994L 293.085 119.908L 294.99 118.042L 296.937 116.261L 299.057 117.955L 301.22 119.691L 303.341 121.515L 305.505 123.382L 307.669 125.291L 309.832 127.246L 312.039 129.242L 314.246 131.326ZM 310.871 134.365L 309.789 135.19L 308.62 136.015L 307.452 136.753L 306.241 137.447L 304.986 138.099L 303.731 138.706L 302.433 139.27L 301.134 139.792L 299.75 140.226L 298.408 140.617L 296.98 140.964L 295.595 141.225L 294.124 141.441L 292.696 141.615L 291.224 141.702L 289.71 141.745L 287.936 141.702L 286.119 141.528L 284.388 141.311L 282.657 141.007L 280.969 140.617L 279.281 140.096L 277.68 139.532L 276.079 138.88L 278.07 136.449L 280.061 134.105L 282.008 131.803L 283.999 129.546L 285.946 127.376L 287.936 125.248L 289.883 123.164L 291.874 121.124L 294.167 122.6L 296.504 124.12L 298.884 125.726L 301.22 127.332L 303.6 129.025L 306.024 130.762L 308.447 132.542L 310.871 134.365Z"/>
</defs>
</svg>
