<svg width="210" height="26" xmlns="http://www.w3.org/2000/svg" xmlns:xlink="http://www.w3.org/1999/xlink"><use xlink:href="#path0_fill" transform="scale(3.50953 1)" fill="#4D4D4D"/><defs><path id="path0_fill" fill-rule="evenodd" d="M3.013 4.965c.49 0 .903.721 1.237 2.169V1.019C4.014.67 3.79.413 3.576.246 3.363.084 3.146 0 2.924 0c-.388 0-.758.256-1.112.768-.354.518-.664 1.228-.932 2.143C.613 3.826.4 4.918.24 6.178a33.46 33.46 0 0 0-.24 4.17c0 1.516.081 2.911.243 4.192.162 1.28.377 2.388.645 3.319.267.935.577 1.656.928 2.168.35.518.718.774 1.101.774.187 0 .376-.068.567-.199.192-.13.398-.334.619-.611l.147-.183v-6.063c-.368 1.396-.783 2.09-1.245 2.09-.21 0-.407-.14-.589-.417-.182-.277-.34-.664-.475-1.15a11.337 11.337 0 0 1-.317-1.725 19.085 19.085 0 0 1-.114-2.169c0-.768.038-1.479.114-2.142.076-.664.18-1.234.313-1.715.133-.475.291-.857.475-1.134.185-.277.385-.418.6-.418zm3.616 7.604a17.418 17.418 0 0 1-.125-2.169c0-.783.042-1.505.125-2.168.084-.664.197-1.24.34-1.725.142-.486.307-.868.496-1.14.19-.266.39-.402.6-.402.212 0 .412.136.601.402.19.272.356.654.501 1.14.145.486.259 1.06.342 1.725.084.663.126 1.385.126 2.168 0 .784-.042 1.506-.126 2.17a10.977 10.977 0 0 1-.342 1.724c-.145.486-.312.868-.501 1.134-.189.272-.39.408-.6.408-.211 0-.412-.136-.6-.408-.19-.266-.355-.648-.498-1.134a11.284 11.284 0 0 1-.339-1.725zM5.222 6.31a34.334 34.334 0 0 0-.228 4.091c0 1.464.076 2.828.228 4.088.153 1.264.364 2.367.634 3.308.27.94.593 1.677.968 2.205.376.533.79.8 1.242.8.447 0 .86-.267 1.237-.8.378-.528.704-1.265.976-2.205.273-.941.485-2.044.637-3.308.152-1.26.229-2.624.229-4.088 0-1.463-.076-2.827-.229-4.092-.152-1.26-.364-2.362-.637-3.303-.272-.94-.598-1.678-.976-2.21C8.925.266 8.513 0 8.066 0 7.614 0 7.2.267 6.824.794c-.375.533-.698 1.27-.968 2.211-.27.94-.481 2.044-.634 3.303zm8.28 9.605h.331c.25 0 .474-.14.67-.418.197-.277.363-.664.498-1.15.135-.486.238-1.066.31-1.74.07-.669.106-1.406.106-2.206 0-.783-.037-1.515-.11-2.195a11.104 11.104 0 0 0-.313-1.75c-.136-.486-.301-.873-.498-1.15-.196-.277-.417-.418-.663-.418h-.331v11.027zM12.058.55h2.136c.379 0 .733.266 1.065.81.331.538.621 1.26.869 2.153.248.899.443 1.944.586 3.136.142 1.197.213 2.446.213 3.752 0 1.291-.07 2.53-.21 3.722-.14 1.197-.334 2.242-.582 3.151-.248.904-.537 1.63-.869 2.17-.331.537-.688.81-1.072.81h-2.136V.548zm7.234 4.338h1.716V.549h-3.16v19.703h3.16v-4.338h-1.716v-3.397h1.62V8.18h-1.62V4.887zM23.49 16.28h.317c.364 0 .624-.167.78-.496.158-.335.237-.863.237-1.594 0-.732-.079-1.265-.236-1.594-.157-.33-.418-.497-.78-.497h-.318v4.181zm0-7.996h.266c.451 0 .677-.638.677-1.908s-.226-1.907-.677-1.907h-.266v3.815zM22.047.549h2.15c.511 0 .9.434 1.164 1.306.265.873.398 2.128.398 3.763 0 .993-.05 1.814-.151 2.467-.1.653-.254 1.208-.46 1.662.206.141.381.35.526.638.145.287.263.643.354 1.06.09.419.156.89.195 1.412.04.523.06 1.082.06 1.672 0 .92-.046 1.74-.137 2.457-.091.716-.219 1.317-.383 1.803-.165.486-.365.852-.6 1.097-.236.246-.502.366-.796.366h-2.32V.55zm6.54 10.714V.549h-1.443v11.42c0 3.067.199 5.304.597 6.715.397 1.411 1.006 2.117 1.826 2.117.82 0 1.428-.706 1.823-2.117.396-1.41.593-3.648.593-6.716V.548h-1.436v10.715c0 .575-.006 1.16-.018 1.761-.013.601-.05 1.15-.115 1.636-.064.486-.16.883-.29 1.186-.13.309-.316.46-.557.46-.24 0-.427-.151-.56-.46-.132-.303-.23-.7-.29-1.186a15.734 15.734 0 0 1-.111-1.636 85.974 85.974 0 0 1-.018-1.761zm7.61-5.67c-.157-.455-.315-.79-.472-1.01-.157-.214-.309-.324-.456-.324-.187 0-.34.157-.457.47-.118.314-.177.722-.177 1.23 0 .344.03.637.089.861.059.225.136.424.232.586.095.167.203.313.324.434.12.12.24.25.357.392.471.553.816 1.3 1.035 2.231.218.936.328 2.148.328 3.648 0 1.009-.048 1.924-.144 2.744-.096.815-.236 1.52-.42 2.101-.184.585-.41 1.04-.678 1.359-.267.324-.57.486-.91.486-.702 0-1.352-.742-1.951-2.221l.619-4.13c.216.68.43 1.187.64 1.517.212.329.42.496.627.496.235 0 .41-.193.526-.575.116-.381.173-.82.173-1.306a5.89 5.89 0 0 0-.044-.774 2.811 2.811 0 0 0-.147-.601 2.25 2.25 0 0 0-.27-.507 9.674 9.674 0 0 0-.4-.523 7.472 7.472 0 0 1-.55-.695c-.179-.25-.338-.585-.478-1.003-.14-.418-.253-.946-.339-1.584-.086-.632-.129-1.437-.129-2.414 0-.978.045-1.86.136-2.655.091-.79.219-1.469.383-2.039.165-.564.366-1.003.604-1.317.239-.313.505-.47.8-.47.275 0 .562.136.861.402.3.272.587.67.862 1.192l-.574 3.998zm3.852 14.66V4.886h1.186V.549H37.42v4.338h1.186v15.365h1.444zm4.987-15.366H43.32v3.292h1.62v4.338h-1.62v3.397h1.716v4.338h-3.16V.55h3.16v4.338zm2.755 4.468h-.273v-4.86h.273c.285 0 .503.209.656.627.152.418.228 1.019.228 1.803s-.076 1.385-.228 1.803c-.153.418-.371.627-.656.627zm1.105 10.897h1.797l-1.746-8.074c.398-.33.699-.962.903-1.898.203-.93.305-2.148.305-3.642 0-.837-.038-1.62-.114-2.352a12.403 12.403 0 0 0-.339-1.934c-.15-.56-.34-.998-.57-1.322-.231-.32-.501-.481-.81-.481h-2.247v19.703h1.443v-7.578l1.378 7.578zm5.45-14.66c-.156-.454-.314-.789-.47-1.008-.158-.215-.31-.325-.457-.325-.187 0-.34.157-.457.47-.118.314-.177.722-.177 1.23 0 .344.03.637.089.861.058.225.136.424.231.586.096.167.204.313.325.434.12.12.239.25.357.392.471.553.816 1.3 1.035 2.231.218.936.328 2.148.328 3.648 0 1.009-.048 1.924-.144 2.744-.096.815-.236 1.52-.42 2.101-.184.585-.41 1.04-.678 1.359-.267.324-.57.486-.91.486-.702 0-1.352-.742-1.951-2.221l.618-4.13c.217.68.43 1.187.641 1.517.211.329.42.496.627.496.235 0 .41-.193.526-.575.115-.381.173-.82.173-1.306a5.89 5.89 0 0 0-.044-.774 2.811 2.811 0 0 0-.147-.601 2.254 2.254 0 0 0-.27-.507 9.778 9.778 0 0 0-.4-.523 7.455 7.455 0 0 1-.55-.695c-.179-.25-.338-.585-.478-1.003-.14-.418-.253-.946-.339-1.584-.086-.632-.129-1.437-.129-2.414 0-.978.045-1.86.136-2.655.091-.79.219-1.469.383-2.039.165-.564.366-1.003.604-1.317.238-.313.505-.47.8-.47.275 0 .562.136.861.402.3.272.587.67.862 1.192l-.574 3.998zm1.13 16.07h4.162V26h-4.163v-4.338z"/></defs></svg>