<svg width="83" height="32" xmlns="http://www.w3.org/2000/svg" xmlns:xlink="http://www.w3.org/1999/xlink"><use xlink:href="#path0_fill" fill="#4F4F4F"/><defs><path id="path0_fill" fill-rule="evenodd" d="M6.74 3.146c1.098 0 2.02.457 2.768 1.374V.646A10.641 10.641 0 0 0 8.714.35 7.027 7.027 0 0 0 6.542 0a6.593 6.593 0 0 0-4.573 1.845 6.595 6.595 0 0 0-1.433 2.07C.179 4.714 0 5.596 0 6.556s.181 1.845.544 2.656a6.82 6.82 0 0 0 1.442 2.103 6.388 6.388 0 0 0 2.076 1.374c.785.328 1.606.49 2.463.49.418 0 .84-.043 1.269-.125.428-.083.89-.212 1.384-.388l.33-.116V8.71c-.824.884-1.753 1.324-2.785 1.324a3.29 3.29 0 0 1-2.381-.993 3.321 3.321 0 0 1-.709-1.093 3.624 3.624 0 0 1-.255-1.374 3.574 3.574 0 0 1 .555-1.94 3.199 3.199 0 0 1 .607-.697 3.387 3.387 0 0 1 .856-.526 3.39 3.39 0 0 1 1.343-.265zm8.396 4.819a3.342 3.342 0 0 1-.28-1.375c0-.496.093-.954.28-1.374a3.451 3.451 0 0 1 1.87-1.815c.423-.169.871-.255 1.343-.255.473 0 .92.086 1.343.255.423.172.797.414 1.12.722a3.343 3.343 0 0 1 1.046 2.467 3.343 3.343 0 0 1-1.045 2.467c-.324.308-.698.55-1.12.72-.424.171-.872.257-1.344.257a3.528 3.528 0 0 1-2.455-.977 3.49 3.49 0 0 1-.758-1.092zM11.99 3.997a6.562 6.562 0 0 0-.511 2.593c0 .927.17 1.792.51 2.59.341.801.814 1.5 1.418 2.096a6.43 6.43 0 0 0 2.167 1.398c.84.338 1.765.507 2.776.507 1 0 1.922-.17 2.769-.507a6.502 6.502 0 0 0 2.183-1.398 6.397 6.397 0 0 0 1.425-2.096c.34-.798.51-1.663.51-2.59 0-.927-.17-1.791-.51-2.593a6.422 6.422 0 0 0-1.425-2.093 6.564 6.564 0 0 0-2.183-1.4A7.465 7.465 0 0 0 18.349 0c-1.01 0-1.936.169-2.776.503a6.492 6.492 0 0 0-2.167 1.401 6.485 6.485 0 0 0-1.417 2.093zm18.52 6.087h.742c.56 0 1.06-.09 1.5-.265a3.37 3.37 0 0 0 .824-.47 2.899 2.899 0 0 0 .288-.258c.302-.308.533-.676.692-1.103.16-.424.24-.891.24-1.398 0-.194-.014-.383-.039-.567a3.695 3.695 0 0 0-.209-.823 3.194 3.194 0 0 0-.7-1.11 3.204 3.204 0 0 0-1.113-.728 3.967 3.967 0 0 0-1.483-.265h-.741v6.987zM27.28.348h4.779c.846 0 1.64.169 2.38.513.742.341 1.39.798 1.945 1.365a6.37 6.37 0 0 1 1.31 1.987c.319.758.478 1.55.478 2.377 0 .818-.156 1.603-.47 2.358a6.334 6.334 0 0 1-3.246 3.372 5.667 5.667 0 0 1-2.397.513H27.28V.348zm16.028 2.749h3.84V.347h-7.07v12.486h7.07v-2.749h-3.84V7.932h3.625V5.183h-3.625V3.097zM3.79 25.84h.708c.813 0 1.395-.106 1.747-.315.352-.211.527-.546.527-1.01 0-.463-.175-.801-.527-1.01-.352-.208-.934-.314-1.747-.314H3.79v2.649zm0-5.067h.593c1.01 0 1.516-.404 1.516-1.209 0-.804-.505-1.208-1.516-1.208H3.79v2.417zM.56 15.872h4.812c1.142 0 2.01.275 2.603.828.593.553.89 1.348.89 2.384 0 .63-.113 1.15-.338 1.563-.225.414-.568.765-1.03 1.053.462.087.855.222 1.178.404.324.183.588.408.791.673.204.265.35.563.437.894a4.1 4.1 0 0 1 .132 1.06c0 .582-.102 1.102-.305 1.556a3.142 3.142 0 0 1-.857 1.143 3.69 3.69 0 0 1-1.343.695 5.113 5.113 0 0 1-.84.174c-.296.039-.61.058-.94.058H.56V15.872zm14.02 6.789v-6.79h-3.23v7.237c0 1.944.446 3.361 1.335 4.255.89.895 2.252 1.342 4.087 1.342s3.194-.447 4.078-1.342c.884-.894 1.327-2.311 1.327-4.255v-7.236h-3.214v6.789a14.91 14.91 0 0 1-.04 1.116c-.028.38-.113.728-.256 1.036-.143.308-.36.56-.651.752-.291.195-.706.292-1.244.292s-.956-.096-1.252-.292a1.717 1.717 0 0 1-.651-.752 2.9 2.9 0 0 1-.227-.83 3.612 3.612 0 0 1-.02-.206 15.942 15.942 0 0 1-.04-.87l-.001-.137v-.11zm16.256-3.593a3.99 3.99 0 0 0-1.055-.64l-.054-.02a2.982 2.982 0 0 0-.075-.027l-.03-.01-.05-.016a3.076 3.076 0 0 0-.236-.064 2.578 2.578 0 0 0-.576-.068c-.418 0-.758.1-1.022.298a.929.929 0 0 0-.395.778c0 .093.011.18.035.26a.718.718 0 0 0 .162.287 1.7 1.7 0 0 0 .52.37c.034.018.069.035.105.05l.063.029a3.818 3.818 0 0 0 .294.114c.084.03.172.057.262.083.27.076.536.159.8.248 1.054.351 1.826.825 2.315 1.414.488.593.733 1.361.733 2.312 0 .639-.107 1.218-.322 1.738a3.621 3.621 0 0 1-.939 1.332c-.412.37-.917.659-1.516.86-.598.206-1.277.309-2.035.309-1.57 0-3.026-.47-4.366-1.408l1.384-2.616c.483.43.961.748 1.433.96.473.209.94.315 1.401.315.527 0 .92-.123 1.178-.364.258-.245.387-.52.387-.828 0-.189-.032-.351-.098-.49a1.073 1.073 0 0 0-.33-.381 1.916 1.916 0 0 0-.218-.14 3.308 3.308 0 0 0-.384-.181c-.247-.1-.546-.212-.897-.332a16.826 16.826 0 0 1-1.228-.44 3.954 3.954 0 0 1-.866-.475 2.955 2.955 0 0 1-.963-1.165c-.192-.4-.288-.91-.288-1.53 0-.619.101-1.178.304-1.682.204-.5.49-.93.857-1.291a3.829 3.829 0 0 1 1.351-.835 5.083 5.083 0 0 1 1.788-.298c.616 0 1.258.086 1.928.255.67.172 1.313.424 1.928.755l-1.285 2.534zm8.465 9.289V18.62h2.653v-2.75H33.42v2.75h2.653v9.736h3.23zm11.155-9.736h-3.84v2.086h3.626v2.749h-3.625v2.152h3.84v2.749h-7.07V15.872h7.07v2.748zm6.163 2.831h-.61v-3.08h.61c.638 0 1.127.133 1.467.398.34.264.51.645.51 1.142 0 .497-.17.878-.51 1.143-.34.265-.83.397-1.466.397zm2.472 6.905h4.02l-3.905-5.117c.89-.212 1.563-.609 2.019-1.202.456-.59.684-1.36.684-2.308 0-.53-.085-1.027-.256-1.49a3.508 3.508 0 0 0-.758-1.226 3.508 3.508 0 0 0-1.277-.837c-.516-.202-1.12-.305-1.812-.305H52.78v12.485h3.23v-4.802l3.081 4.802zm12.04-9.29a3.991 3.991 0 0 0-1.054-.638 2.83 2.83 0 0 0-1.022-.206c-.417 0-.758.1-1.021.298a.928.928 0 0 0-.396.778c0 .127.022.242.066.344a.721.721 0 0 0 .132.203c.056.06.12.118.19.172.096.073.206.14.33.199.213.106.455.199.724.275a16.402 16.402 0 0 1 .8.248c1.054.351 1.826.825 2.315 1.414.488.593.733 1.361.733 2.312 0 .639-.107 1.218-.322 1.738a3.621 3.621 0 0 1-.939 1.332c-.412.37-.917.659-1.516.86-.599.206-1.277.309-2.035.309-1.57 0-3.026-.47-4.366-1.408l1.384-2.616c.483.43.961.748 1.433.96a3.45 3.45 0 0 0 1.558.311c.45-.022.79-.143 1.021-.36.258-.245.387-.52.387-.828 0-.189-.033-.351-.099-.49a.971.971 0 0 0-.2-.27 1.356 1.356 0 0 0-.13-.111 1.89 1.89 0 0 0-.193-.127 3.24 3.24 0 0 0-.408-.194c-.247-.1-.546-.212-.897-.332a16.826 16.826 0 0 1-1.228-.44 3.826 3.826 0 0 1-1.071-.636 2.955 2.955 0 0 1-.758-1.003c-.192-.401-.289-.911-.289-1.53 0-.62.102-1.18.305-1.683.204-.5.489-.93.857-1.291.144-.14.3-.268.47-.383.263-.18.557-.33.881-.452a5.083 5.083 0 0 1 1.788-.298c.615 0 1.258.086 1.928.255.67.172 1.313.424 1.928.755l-1.285 2.534zm2.522 10.184h9.31V32h-9.31V29.25z"/></defs></svg>