<svg width="210" height="26" viewBox="0 0 210 26" xmlns="http://www.w3.org/2000/svg" xmlns:xlink="http://www.w3.org/1999/xlink"><title>Logo (horiz)</title><desc>Created using Figma</desc><g transform="translate(8355 -457)"><path fill="#E5E5E5" d="M-8355 457h210v26h-210z"/><clipPath id="a" clip-rule="evenodd"><path d="M-8435 411h1440v1221h-1440V411z" fill="#FFF"/></clipPath><g clip-path="url(#a)"><path d="M-8435 411h1440v1221h-1440V411z" fill="#FFF"/><use xlink:href="#b" transform="matrix(3.50953 0 0 1 -8355 457)" fill="#4D4D4D"/></g></g><defs><path id="b" fill-rule="evenodd" d="M3.013 4.965c.49 0 .903.72 1.237 2.17V1.018C4.014.67 3.79.412 3.576.245 3.362.084 3.146 0 2.924 0c-.388 0-.758.256-1.112.768-.354.518-.664 1.228-.932 2.143C.612 3.827.4 4.92.24 6.18.08 7.442 0 8.833 0 10.348c0 1.516.08 2.91.243 4.192.162 1.28.377 2.388.645 3.32.267.934.577 1.655.928 2.167.35.518.718.774 1.1.774.188 0 .377-.067.568-.198.192-.13.398-.334.62-.61l.146-.184v-6.063c-.368 1.396-.783 2.09-1.245 2.09-.21 0-.407-.14-.59-.417-.18-.277-.34-.664-.474-1.15-.134-.486-.24-1.06-.316-1.725-.076-.663-.114-1.385-.114-2.17 0-.767.038-1.478.114-2.14.076-.665.18-1.235.313-1.716.133-.475.29-.857.476-1.134.183-.277.384-.418.6-.418zM6.63 12.57c-.084-.664-.126-1.386-.126-2.17 0-.783.042-1.505.126-2.168.083-.664.196-1.24.338-1.725.143-.486.31-.868.497-1.14.19-.266.39-.402.6-.402.212 0 .412.136.6.402.19.272.357.654.502 1.14.145.486.26 1.06.343 1.725.083.663.125 1.385.125 2.168 0 .784-.042 1.506-.125 2.17-.084.658-.198 1.238-.343 1.724-.145.486-.312.868-.5 1.134-.19.272-.39.408-.6.408-.212 0-.412-.136-.602-.408-.188-.266-.354-.648-.497-1.134-.142-.486-.255-1.066-.338-1.725zM5.223 6.307c-.153 1.265-.23 2.63-.23 4.092 0 1.464.077 2.828.23 4.088.152 1.264.363 2.367.633 3.308.27.94.593 1.677.97 2.205.374.534.788.8 1.24.8.447 0 .86-.266 1.237-.8.38-.527.704-1.264.976-2.204.272-.94.484-2.044.636-3.308.153-1.26.23-2.624.23-4.088 0-1.463-.077-2.827-.23-4.092-.152-1.26-.364-2.362-.636-3.303-.273-.94-.598-1.678-.977-2.21C8.925.266 8.513 0 8.066 0c-.452 0-.866.267-1.24.794-.377.533-.7 1.27-.97 2.21-.27.942-.48 2.045-.633 3.304zm8.28 9.606h.33c.25 0 .475-.14.67-.418.197-.277.363-.664.498-1.15.136-.486.24-1.066.31-1.74.072-.67.107-1.406.107-2.206 0-.783-.036-1.515-.11-2.195-.074-.68-.178-1.264-.313-1.75s-.3-.873-.498-1.15c-.196-.277-.417-.418-.662-.418h-.332v11.027zM12.057.55h2.137c.378 0 .732.265 1.064.81.33.537.62 1.258.868 2.152.248.9.443 1.944.586 3.136.142 1.197.213 2.446.213 3.752 0 1.29-.07 2.53-.21 3.722-.14 1.197-.334 2.242-.58 3.15-.25.905-.54 1.632-.87 2.17-.332.538-.69.81-1.072.81h-2.137V.55zm7.233 4.337h1.718V.55h-3.16V20.25h3.16v-4.338h-1.716v-3.397h1.62V8.18h-1.62V4.886zm4.2 11.393h.317c.364 0 .624-.167.78-.496.158-.335.237-.863.237-1.594 0-.732-.08-1.265-.236-1.594-.157-.33-.418-.497-.78-.497h-.318v4.18zm0-7.996h.265c.452 0 .678-.638.678-1.908s-.226-1.907-.678-1.907h-.265v3.814zM22.047.55h2.15c.51 0 .9.433 1.164 1.305.266.873.4 2.128.4 3.763 0 .993-.05 1.814-.152 2.467-.1.653-.254 1.208-.46 1.662.206.14.38.35.526.638.145.287.263.643.354 1.06.09.42.156.89.195 1.412.04.523.06 1.082.06 1.672 0 .92-.046 1.74-.137 2.456-.09.716-.22 1.317-.383 1.803-.165.485-.365.85-.6 1.096-.236.246-.502.366-.796.366h-2.32V.55zm6.54 10.713V.55h-1.443v11.418c0 3.068.2 5.305.597 6.716.4 1.41 1.007 2.117 1.827 2.117.82 0 1.428-.705 1.823-2.116.396-1.41.593-3.648.593-6.716V.548h-1.436v10.715c0 .575-.006 1.16-.018 1.76-.014.602-.052 1.15-.116 1.637-.063.486-.16.883-.29 1.186-.13.31-.316.46-.557.46-.24 0-.427-.15-.56-.46-.132-.303-.23-.7-.29-1.186-.062-.486-.098-1.035-.11-1.636-.013-.6-.02-1.186-.02-1.76zm7.61-5.67c-.158-.455-.315-.79-.472-1.01-.157-.214-.31-.324-.456-.324-.188 0-.34.156-.458.47-.118.313-.177.72-.177 1.228 0 .345.03.638.09.862.057.225.135.424.23.586.096.167.204.313.325.434.12.12.24.25.357.392.47.553.816 1.3 1.035 2.23.218.937.328 2.15.328 3.65 0 1.008-.048 1.923-.144 2.743-.096.815-.236 1.52-.42 2.1-.184.586-.41 1.04-.678 1.36-.267.324-.57.486-.91.486-.702 0-1.352-.74-1.95-2.22l.618-4.13c.215.68.43 1.187.64 1.517.21.33.42.496.627.496.235 0 .41-.193.526-.575.114-.38.172-.82.172-1.306 0-.298-.014-.554-.044-.774-.03-.214-.078-.418-.147-.6-.068-.184-.158-.35-.268-.508-.11-.157-.244-.33-.402-.523-.186-.21-.37-.44-.548-.695-.18-.25-.34-.585-.48-1.003-.14-.42-.252-.947-.338-1.585-.086-.632-.13-1.437-.13-2.414 0-.977.047-1.86.137-2.654.092-.79.22-1.47.384-2.04.165-.563.366-1.002.605-1.316.237-.313.503-.47.798-.47.275 0 .562.136.86.402.3.272.588.67.863 1.192l-.573 3.998zm3.852 14.66V4.886h1.185V.55H37.42v4.337h1.185v15.365h1.444zm4.986-15.366H43.32V8.18h1.62v4.337h-1.62v3.397h1.716v4.338h-3.16V.55h3.16v4.337zm2.755 4.468h-.272v-4.86h.273c.286 0 .504.21.657.627.152.418.228 1.02.228 1.803 0 .784-.076 1.385-.228 1.803-.153.418-.37.627-.656.627zm1.106 10.897h1.797l-1.746-8.074c.398-.33.7-.962.903-1.898.203-.93.305-2.148.305-3.642 0-.837-.038-1.62-.114-2.352-.075-.732-.188-1.38-.338-1.934-.15-.56-.34-.998-.57-1.322-.23-.32-.5-.48-.81-.48h-2.247V20.25h1.443v-7.578l1.378 7.578zm5.45-14.66c-.156-.454-.314-.79-.47-1.008-.158-.215-.31-.325-.457-.325-.188 0-.34.156-.458.47-.118.313-.177.72-.177 1.228 0 .345.03.638.09.862.057.225.135.424.23.586.096.167.204.313.325.434.12.12.24.25.357.392.47.553.816 1.3 1.035 2.23.218.937.328 2.15.328 3.65 0 1.008-.048 1.923-.144 2.743-.096.815-.236 1.52-.42 2.1-.184.586-.41 1.04-.678 1.36-.267.324-.57.486-.91.486-.702 0-1.352-.74-1.95-2.22l.617-4.13c.217.68.43 1.187.64 1.517.212.33.42.496.627.496.236 0 .412-.193.527-.575.114-.38.172-.82.172-1.306 0-.298-.015-.554-.044-.774-.03-.214-.08-.418-.147-.6-.068-.184-.158-.35-.268-.508-.11-.157-.244-.33-.402-.523-.186-.21-.37-.44-.548-.695-.18-.25-.34-.585-.48-1.003-.14-.42-.252-.947-.338-1.585-.086-.632-.13-1.437-.13-2.414 0-.977.046-1.86.137-2.654.092-.79.22-1.47.384-2.04.165-.563.366-1.002.604-1.316.238-.313.505-.47.8-.47.275 0 .562.136.86.402.3.272.588.67.863 1.192l-.573 3.998zm1.13 16.07h4.162V26h-4.163v-4.338z"/></defs></svg>