<svg width="542" height="209" viewBox="0 0 542 209" xmlns="http://www.w3.org/2000/svg" xmlns:xlink="http://www.w3.org/1999/xlink"><title>Logo (vert)</title><desc>Created using Figma</desc><use xlink:href="#a" fill="#4F4F4F"/><defs><path id="a" fill-rule="evenodd" d="M44.03 20.548c7.175 0 13.203 2.985 18.084 8.976V4.218c-3.444-1.45-6.728-2.51-9.85-3.2C49.145.345 45.968 0 42.738 0c-5.67 0-11.088 1.06-16.255 3.18-5.168 2.14-9.706 5.083-13.618 8.868C8.952 15.833 5.83 20.354 3.5 25.566 1.166 30.8 0 36.554 0 42.826 0 49.1 1.185 54.875 3.553 60.174c2.368 5.3 5.507 9.885 9.42 13.735 3.91 3.872 8.432 6.857 13.563 8.977 5.13 2.14 10.495 3.2 16.094 3.2 2.727 0 5.49-.28 8.29-.82 2.798-.542 5.81-1.386 9.04-2.532l2.154-.757v-25.09c-5.383 5.775-11.447 8.652-18.193 8.652-3.084 0-5.956-.584-8.61-1.73-2.656-1.147-4.97-2.748-6.944-4.76-1.974-2.01-3.516-4.39-4.63-7.137-1.112-2.746-1.668-5.73-1.668-8.975 0-3.18.556-6.122 1.67-8.87 1.112-2.745 2.636-5.103 4.575-7.093 1.937-1.968 4.252-3.547 6.943-4.693 2.69-1.148 5.614-1.732 8.773-1.732zm54.855 31.47c-1.22-2.746-1.83-5.73-1.83-8.975 0-3.245.61-6.23 1.83-8.976 1.22-2.747 2.87-5.126 4.952-7.138 2.082-2.013 4.504-3.592 7.266-4.716 2.762-1.104 5.688-1.666 8.774-1.666 3.085 0 6.01.563 8.773 1.666 2.762 1.124 5.204 2.703 7.32 4.715 2.117 2.01 3.785 4.39 5.006 7.137 1.22 2.746 1.83 5.73 1.83 8.976 0 3.244-.61 6.23-1.83 8.976-1.22 2.724-2.89 5.125-5.005 7.137-2.116 2.01-4.558 3.59-7.32 4.694-2.762 1.125-5.688 1.688-8.773 1.688-3.086 0-6.012-.563-8.774-1.688-2.762-1.103-5.184-2.682-7.266-4.693-2.082-2.012-3.732-4.412-4.952-7.138zM78.323 26.11c-2.223 5.233-3.337 10.88-3.337 16.935 0 6.056 1.114 11.7 3.337 16.914 2.225 5.234 5.312 9.798 9.258 13.692 3.948 3.892 8.667 6.942 14.157 9.126 5.49 2.207 11.536 3.31 18.14 3.31 6.53 0 12.558-1.103 18.085-3.31 5.526-2.184 10.28-5.234 14.264-9.127 3.983-3.895 7.087-8.46 9.31-13.693 2.225-5.213 3.34-10.858 3.34-16.914 0-6.056-1.115-11.702-3.34-16.936-2.223-5.213-5.327-9.777-9.31-13.67-3.984-3.893-8.738-6.943-14.264-9.15C132.435 1.104 126.406 0 119.877 0c-6.604 0-12.65 1.103-18.14 3.288-5.49 2.206-10.21 5.256-14.156 9.15-3.945 3.892-7.032 8.456-9.257 13.67zm121 39.754h4.844c3.66 0 6.927-.584 9.796-1.73 2.87-1.147 5.293-2.747 7.267-4.76 1.974-2.01 3.48-4.41 4.52-7.2 1.04-2.77 1.562-5.82 1.562-9.13 0-3.243-.538-6.272-1.615-9.083-1.076-2.813-2.6-5.236-4.575-7.247-1.974-2.012-4.396-3.613-7.266-4.76-2.87-1.145-6.1-1.73-9.69-1.73h-4.843v45.64zm-21.1-63.59h31.22c5.526 0 10.71 1.102 15.555 3.352 4.844 2.228 9.08 5.212 12.703 8.91 3.624 3.72 6.477 8.047 8.56 12.98 2.08 4.952 3.12 10.122 3.12 15.53 0 5.342-1.022 10.468-3.068 15.4-2.045 4.952-4.88 9.278-8.504 13.042-3.623 3.742-7.858 6.748-12.703 8.976-4.844 2.228-10.065 3.353-15.663 3.353h-31.218V2.27zm104.714 17.952h25.082V2.27h-46.183v81.545h46.182V65.862h-25.083v-14.06h23.683V33.85h-23.683V20.224zM24.76 168.768h4.63c5.31 0 9.112-.692 11.41-2.055 2.297-1.384 3.444-3.57 3.444-6.597 0-3.028-1.147-5.234-3.444-6.597-2.298-1.364-6.1-2.056-11.41-2.056h-4.63v17.304zm0-33.093h3.875c6.603 0 9.904-2.64 9.904-7.895 0-5.256-3.302-7.895-9.905-7.895H24.76v15.79zm-21.1-32.012h31.434c7.465 0 13.133 1.795 17.008 5.407 3.877 3.612 5.814 8.804 5.814 15.574 0 4.11-.736 7.505-2.207 10.21-1.472 2.703-3.715 4.995-6.73 6.877 3.015.564 5.582 1.45 7.698 2.64 2.116 1.19 3.84 2.66 5.167 4.39 1.33 1.73 2.278 3.678 2.853 5.84.575 2.164.862 4.456.862 6.922 0 3.807-.665 7.203-1.993 10.166-1.328 2.964-3.192 5.45-5.597 7.462-2.405 2.012-5.33 3.526-8.774 4.542-3.444 1.017-7.32 1.515-11.626 1.515H3.66v-81.544zm91.594 44.34v-44.34h-21.1v47.26c0 12.697 2.907 21.955 8.72 27.795 5.814 5.84 14.712 8.76 26.697 8.76 11.987 0 20.868-2.92 26.645-8.76 5.776-5.84 8.666-15.098 8.666-27.794v-47.26h-20.99v44.34c0 2.38-.092 4.802-.27 7.29-.18 2.486-.736 4.757-1.67 6.77-.93 2.01-2.35 3.654-4.25 4.91-1.902 1.275-4.613 1.902-8.13 1.902-3.514 0-6.243-.627-8.18-1.903-1.938-1.255-3.355-2.9-4.252-4.91-.898-2.012-1.437-4.283-1.616-6.77-.178-2.487-.268-4.91-.268-7.29zm106.203-23.467c-2.297-1.882-4.593-3.266-6.89-4.174-2.297-.887-4.52-1.34-6.674-1.34-2.728 0-4.952.647-6.674 1.945-1.724 1.298-2.585 2.985-2.585 5.083 0 1.428.43 2.64 1.292 3.57.86.93 1.99 1.75 3.39 2.422 1.4.692 2.978 1.297 4.737 1.795 1.76.497 3.5 1.038 5.22 1.622 6.89 2.292 11.934 5.385 15.126 9.235 3.193 3.872 4.79 8.89 4.79 15.097 0 4.175-.7 7.96-2.098 11.356-1.4 3.374-3.445 6.294-6.136 8.695-2.692 2.423-5.992 4.304-9.904 5.623-3.912 1.34-8.343 2.012-13.295 2.012-10.263 0-19.772-3.072-28.528-9.193l9.042-17.087c3.16 2.812 6.28 4.888 9.366 6.273 3.085 1.363 6.136 2.056 9.15 2.056 3.445 0 6.01-.8 7.697-2.38 1.686-1.6 2.53-3.396 2.53-5.407 0-1.234-.216-2.294-.646-3.202-.432-.887-1.15-1.73-2.154-2.487-1.006-.756-2.315-1.45-3.93-2.098-1.614-.65-3.57-1.384-5.867-2.163-2.728-.866-5.4-1.817-8.02-2.877-2.62-1.038-4.952-2.423-6.998-4.154-2.045-1.73-3.696-3.915-4.952-6.554-1.255-2.617-1.884-5.948-1.884-9.993s.663-7.7 1.993-10.988c1.327-3.266 3.19-6.078 5.596-8.435 2.405-2.336 5.346-4.153 8.827-5.45 3.482-1.3 7.374-1.947 11.68-1.947 4.02 0 8.218.562 12.595 1.665 4.378 1.125 8.576 2.768 12.596 4.93l-8.397 16.548zm55.3 60.67v-63.59h17.332v-17.953h-55.764v17.953h17.332v63.59h21.1zm72.88-63.59h-25.082v13.626h23.683v17.953h-23.683v14.06h25.082v17.952h-46.182v-81.544h46.182v17.953zm40.26 18.493h-3.982v-20.117h3.983c4.162 0 7.357.865 9.58 2.596 2.225 1.73 3.338 4.217 3.338 7.46 0 3.246-1.113 5.733-3.337 7.463-2.225 1.73-5.42 2.596-9.582 2.596zm16.148 45.097h26.267L386.8 151.79c5.812-1.386 10.21-3.98 13.186-7.853 2.978-3.85 4.468-8.89 4.468-15.075 0-3.46-.556-6.706-1.67-9.734-1.112-3.028-2.76-5.71-4.95-8.002-2.19-2.315-4.97-4.132-8.344-5.473-3.373-1.32-7.32-1.99-11.84-1.99h-32.835v81.544h21.1v-31.363l20.13 31.363zm78.662-60.67c-2.297-1.883-4.593-3.267-6.89-4.175-2.297-.887-4.52-1.34-6.674-1.34-2.728 0-4.952.647-6.674 1.945-1.724 1.298-2.585 2.985-2.585 5.083 0 1.428.43 2.64 1.292 3.57.86.93 1.99 1.75 3.39 2.422 1.4.692 2.978 1.297 4.737 1.795 1.76.497 3.5 1.038 5.22 1.622 6.89 2.292 11.934 5.385 15.126 9.235 3.193 3.872 4.79 8.89 4.79 15.097 0 4.175-.7 7.96-2.1 11.356-1.398 3.374-3.443 6.294-6.134 8.695-2.692 2.423-5.992 4.304-9.904 5.623-3.912 1.34-8.344 2.012-13.295 2.012-10.263 0-19.77-3.072-28.528-9.193l9.042-17.087c3.16 2.812 6.28 4.888 9.366 6.273 3.085 1.363 6.136 2.056 9.15 2.056 3.445 0 6.01-.8 7.697-2.38 1.686-1.6 2.53-3.396 2.53-5.407 0-1.234-.216-2.294-.646-3.202-.432-.887-1.15-1.73-2.154-2.487-1.006-.756-2.315-1.45-3.93-2.098-1.614-.65-3.57-1.384-5.866-2.163-2.728-.866-5.4-1.817-8.02-2.877-2.62-1.038-4.952-2.423-6.998-4.154-2.045-1.73-3.696-3.915-4.95-6.554-1.257-2.617-1.885-5.948-1.885-9.993s.663-7.7 1.99-10.988c1.33-3.266 3.194-6.078 5.6-8.435 2.404-2.336 5.345-4.153 8.826-5.45 3.482-1.3 7.374-1.947 11.68-1.947 4.02 0 8.218.562 12.595 1.665 4.378 1.125 8.576 2.768 12.596 4.93l-8.397 16.548zm16.47 66.51H542V209h-60.822v-17.953z"/></defs></svg>