<svg width="83" height="32" viewBox="0 0 83 32" version="1.1" xmlns="http://www.w3.org/2000/svg" xmlns:xlink="http://www.w3.org/1999/xlink">
<title>Logo (vert)</title>
<desc>Created using Figma</desc>
<g id="Canvas" transform="translate(-674 -406)">
<rect x="674" y="406" width="83" height="32" fill="#E5E5E5"/>
<clipPath id="clip-0" clip-rule="evenodd">
<path d="M 650 390L 1025 390L 1025 6146L 650 6146L 650 390Z" fill="#FFFFFF"/>
</clipPath>
<g id="iPhone 8.4" clip-path="url(#clip-0)">
<path d="M 650 390L 1025 390L 1025 6146L 650 6146L 650 390Z" fill="#F7F7F7"/>
<g id="mob_header">
<g id="Logo (vert)">
<use xlink:href="#path0_fill" transform="translate(674 406)" fill="#4F4F4F"/>
</g>
</g>
</g>
</g>
<defs>
<path id="path0_fill" fill-rule="evenodd" d="M 15.1361 7.9646C 14.9492 7.54401 14.856 7.08701 14.856 6.59024C 14.856 6.09351 14.9492 5.63647 15.1361 5.21588C 15.323 4.79532 15.5754 4.43103 15.8941 4.12305C 16.2128 3.81506 16.5835 3.5733 17.0063 3.40109C 17.4292 3.23221 17.877 3.14609 18.3493 3.14609C 18.8215 3.14609 19.2694 3.23221 19.6922 3.40109C 20.1151 3.5733 20.4887 3.81506 20.8127 4.12305C 21.1367 4.43103 21.3921 4.79532 21.5789 5.21588C 21.7658 5.63647 21.859 6.09351 21.859 6.59024C 21.859 7.08701 21.7658 7.54401 21.5789 7.9646C 21.3921 8.38187 21.1367 8.74945 20.8127 9.05743C 20.4887 9.36542 20.1151 9.60718 19.6922 9.77609C 19.2694 9.94827 18.8215 10.0344 18.3493 10.0344C 17.877 10.0344 17.4292 9.94827 17.0063 9.77609C 16.5835 9.60718 16.2128 9.36542 15.8941 9.05743C 15.5754 8.74945 15.323 8.38187 15.1361 7.9646ZM 11.9889 3.99722C 11.6484 4.79865 11.4781 5.66296 11.4781 6.59024C 11.4781 7.51752 11.6484 8.38184 11.9889 9.17996C 12.3293 9.98138 12.8019 10.6802 13.4059 11.2763C 14.01 11.8724 14.7324 12.3393 15.5728 12.6738C 16.4131 13.0116 17.3385 13.1805 18.3493 13.1805C 19.3488 13.1805 20.2716 13.0116 21.1175 12.6738C 21.9635 12.3393 22.6912 11.8724 23.3008 11.2763C 23.9105 10.6802 24.3857 9.98138 24.7262 9.17996C 25.0666 8.38184 25.237 7.51752 25.237 6.59024C 25.237 5.66296 25.0666 4.79865 24.7262 3.99722C 24.3857 3.1991 23.9105 2.50031 23.3008 1.90421C 22.6912 1.30811 21.9635 0.841156 21.1175 0.503387C 20.2716 0.168884 19.3488 0 18.3493 0C 17.3385 0 16.4131 0.168884 15.5728 0.503387C 14.7324 0.841156 14.01 1.30811 13.4059 1.90421C 12.8019 2.50031 12.3293 3.1991 11.9889 3.99722ZM 6.73941 3.14615C 7.8378 3.14615 8.76056 3.60318 9.50766 4.52051L 9.50766 0.645844C 8.98038 0.423981 8.47781 0.261658 7.99994 0.155701C 7.52209 0.0530396 7.03601 6.10352e-05 6.54166 6.10352e-05C 5.67395 6.10352e-05 4.84445 0.162323 4.05353 0.486847C 3.2626 0.814728 2.5679 1.26514 1.96909 1.8447C 1.3703 2.42422 0.892426 3.11636 0.535522 3.91449C 0.178619 4.71591 0 5.5968 0 6.55719C 0 7.51758 0.181244 8.40179 0.543762 9.21317C 0.906281 10.0245 1.38678 10.7266 1.98557 11.3161C 2.58438 11.9089 3.27643 12.3659 4.06177 12.6904C 4.84711 13.0183 5.66833 13.1805 6.52518 13.1805C 6.94272 13.1805 7.36554 13.1375 7.79398 13.0547C 8.22238 12.9719 8.68378 12.8427 9.1781 12.6672L 9.50766 12.5513L 9.50766 8.70978C 8.68378 9.59399 7.7554 10.0345 6.72293 10.0345C 6.25067 10.0345 5.81104 9.94504 5.40469 9.7695C 4.99835 9.59399 4.6441 9.34894 4.34189 9.04095C 4.03967 8.73297 3.80371 8.36868 3.63333 7.94809C 3.46295 7.5275 3.37793 7.0705 3.37793 6.57373C 3.37793 6.08691 3.46295 5.63654 3.63333 5.21594C 3.80371 4.79538 4.03705 4.43439 4.33365 4.1297C 4.63025 3.82834 4.98453 3.58661 5.39645 3.4111C 5.80841 3.2356 6.25595 3.14615 6.73941 3.14615ZM 30.5099 10.0842L 31.2514 10.0842C 31.8117 10.0842 32.3116 9.99475 32.7509 9.81924C 33.1902 9.64374 33.561 9.39868 33.8632 9.0907C 34.1654 8.78271 34.3961 8.41507 34.5552 7.98788C 34.7144 7.564 34.7942 7.09705 34.7942 6.59036C 34.7942 6.0936 34.7118 5.62997 34.547 5.19946C 34.3822 4.76895 34.1489 4.39801 33.8467 4.09003C 33.5445 3.78204 33.1737 3.53699 32.7344 3.36148C 32.2951 3.18594 31.8008 3.09653 31.2514 3.09653L 30.5099 3.09653L 30.5099 10.0842ZM 27.2803 0.347839L 32.0588 0.347839C 32.9048 0.347839 33.6984 0.516724 34.4399 0.861145C 35.1814 1.20224 35.8296 1.65924 36.3842 2.22556C 36.9389 2.79517 37.3755 3.45749 37.6942 4.21255C 38.0129 4.97092 38.1721 5.76245 38.1721 6.59036C 38.1721 7.40836 38.0156 8.19321 37.7025 8.94827C 37.3894 9.70663 36.9554 10.369 36.4007 10.9452C 35.8461 11.5182 35.1979 11.9785 34.4564 12.3196C 33.7149 12.6607 32.9157 12.8329 32.0588 12.8329L 27.2803 12.8329L 27.2803 0.347839ZM 43.3083 3.09653L 47.1476 3.09653L 47.1476 0.347839L 40.0787 0.347839L 40.0787 12.8329L 47.1476 12.8329L 47.1476 10.0842L 43.3083 10.0842L 43.3083 7.93161L 46.9334 7.93161L 46.9334 5.18289L 43.3083 5.18289L 43.3083 3.09653ZM 3.78979 25.8399L 4.49832 25.8399C 5.31134 25.8399 5.89334 25.734 6.24496 25.5253C 6.59662 25.3134 6.77225 24.9789 6.77225 24.5153C 6.77225 24.0516 6.59662 23.7138 6.24496 23.5052C 5.89334 23.2965 5.31134 23.1906 4.49832 23.1906L 3.78979 23.1906L 3.78979 25.8399ZM 3.78979 20.773L 4.383 20.773C 5.39374 20.773 5.89893 20.369 5.89893 19.5643C 5.89893 18.7596 5.39374 18.3555 4.383 18.3555L 3.78979 18.3555L 3.78979 20.773ZM 0.56015 15.8717L 5.37164 15.8717C 6.51422 15.8717 7.38193 16.1466 7.97513 16.6996C 8.56833 17.2527 8.86493 18.0476 8.86493 19.0841C 8.86493 19.7133 8.75223 20.2333 8.52713 20.6472C 8.30206 21.0612 7.95865 21.4122 7.49728 21.7003C 7.95865 21.7864 8.3515 21.9222 8.67545 22.1043C 8.99939 22.2865 9.26303 22.5117 9.46637 22.7766C 9.66971 23.0416 9.81503 23.3396 9.90302 23.6707C 9.99103 24.0019 10.0349 24.3529 10.0349 24.7305C 10.0349 25.3133 9.93335 25.8333 9.73001 26.287C 9.52667 26.7407 9.24127 27.1216 8.87317 27.4295C 8.50507 27.7375 8.05753 27.9693 7.53024 28.1249C 7.00296 28.2806 6.40976 28.3568 5.75064 28.3568L 0.56015 28.3568L 0.56015 15.8717ZM 14.5804 22.6607L 14.5804 15.8717L 11.3507 15.8717L 11.3507 23.1078C 11.3507 25.0518 11.7956 26.4692 12.6854 27.3633C 13.5752 28.2575 14.9373 28.7045 16.7719 28.7045C 18.6065 28.7045 19.9659 28.2575 20.8501 27.3633C 21.7343 26.4692 22.1766 25.0518 22.1766 23.1078L 22.1766 15.8717L 18.9634 15.8717L 18.9634 22.6607C 18.9634 23.025 18.9496 23.3959 18.9222 23.7768C 18.8949 24.1576 18.8095 24.5053 18.6668 24.8133C 18.5241 25.1212 18.3069 25.373 18.016 25.565C 17.7249 25.7604 17.3101 25.8565 16.7719 25.8565C 16.2337 25.8565 15.8162 25.7604 15.5196 25.565C 15.223 25.373 15.0061 25.1212 14.8687 24.8133C 14.7313 24.5053 14.6489 24.1576 14.6216 23.7768C 14.5942 23.3959 14.5804 23.025 14.5804 22.6607ZM 30.8358 19.0676C 30.4842 18.7795 30.1328 18.5676 29.7812 18.4285C 29.4296 18.2927 29.0892 18.2231 28.7596 18.2231C 28.3421 18.2231 28.0016 18.3224 27.738 18.5211C 27.4743 18.7198 27.3425 18.9782 27.3425 19.2994C 27.3425 19.518 27.4084 19.7034 27.5403 19.8458C 27.6721 19.9882 27.8451 20.1141 28.0593 20.2168C 28.2735 20.3228 28.5151 20.4155 28.7843 20.4917C 29.0536 20.5678 29.3199 20.6506 29.5835 20.7401C 30.6381 21.0911 31.4099 21.5647 31.8986 22.1541C 32.3874 22.7469 32.6319 23.5152 32.6319 24.4657C 32.6319 25.1048 32.5248 25.6844 32.3105 26.2043C 32.0963 26.7209 31.7833 27.168 31.3713 27.5356C 30.9594 27.9065 30.4542 28.1946 29.8554 28.3966C 29.2566 28.6019 28.5783 28.7046 27.8204 28.7046C 26.2494 28.7046 24.7941 28.2343 23.4538 27.2971L 24.8379 24.6809C 25.3214 25.1114 25.7992 25.4293 26.2715 25.6413C 26.7437 25.8499 27.2107 25.9559 27.6721 25.9559C 28.1993 25.9559 28.5922 25.8334 28.8502 25.5916C 29.1083 25.3466 29.2375 25.0717 29.2375 24.7637C 29.2375 24.5749 29.2045 24.4127 29.1386 24.2736C 29.0727 24.1378 28.963 24.0087 28.8091 23.8928C 28.6551 23.7769 28.4548 23.6708 28.2076 23.5715C 27.9604 23.4721 27.6612 23.3595 27.3095 23.2403C 26.892 23.1078 26.483 22.9622 26.082 22.7999C 25.6809 22.6409 25.324 22.4289 25.0109 22.164C 24.6978 21.899 24.4451 21.5647 24.2529 21.1606C 24.0608 20.7599 23.9646 20.2499 23.9646 19.6306C 23.9646 19.0113 24.0661 18.4516 24.2694 17.9482C 24.4727 17.4482 24.7581 17.0177 25.1263 16.6567C 25.4944 16.299 25.9445 16.0209 26.4774 15.8222C 27.0103 15.6235 27.6062 15.5241 28.2653 15.5241C 28.8806 15.5241 29.5232 15.6103 30.1932 15.7791C 30.8632 15.9514 31.5058 16.203 32.1211 16.5341L 30.8358 19.0676ZM 39.3011 28.3568L 39.3011 18.6205L 41.954 18.6205L 41.954 15.8717L 33.4185 15.8717L 33.4185 18.6205L 36.0715 18.6205L 36.0715 28.3568L 39.3011 28.3568ZM 50.4562 18.6205L 46.6169 18.6205L 46.6169 20.7068L 50.242 20.7068L 50.242 23.4555L 46.6169 23.4555L 46.6169 25.6081L 50.4562 25.6081L 50.4562 28.3568L 43.3872 28.3568L 43.3872 15.8717L 50.4562 15.8717L 50.4562 18.6205ZM 56.6195 21.4519L 56.0098 21.4519L 56.0098 18.3721L 56.6195 18.3721C 57.2565 18.3721 57.7455 18.5045 58.086 18.7694C 58.4264 19.0344 58.5968 19.4153 58.5968 19.912C 58.5968 20.4088 58.4264 20.7896 58.086 21.0546C 57.7455 21.3195 57.2565 21.4519 56.6195 21.4519ZM 59.0911 28.3568L 63.1117 28.3568L 59.2065 23.2402C 60.0963 23.0283 60.7692 22.6309 61.225 22.0381C 61.6808 21.4486 61.9088 20.677 61.9088 19.7299C 61.9088 19.2 61.8238 18.7033 61.6534 18.2396C 61.483 17.776 61.2306 17.3654 60.8954 17.0143C 60.5603 16.66 60.1348 16.3818 59.6184 16.1765C 59.102 15.9745 58.4979 15.8717 57.8058 15.8717L 52.7802 15.8717L 52.7802 28.3568L 56.0098 28.3568L 56.0098 23.5549L 59.0911 28.3568ZM 71.1317 19.0676C 70.78 18.7795 70.4287 18.5676 70.0771 18.4285C 69.7254 18.2927 69.385 18.2231 69.0555 18.2231C 68.6379 18.2231 68.2975 18.3224 68.0338 18.5211C 67.7702 18.7198 67.6384 18.9782 67.6384 19.2994C 67.6384 19.518 67.7043 19.7034 67.8361 19.8458C 67.9679 19.9882 68.1409 20.1141 68.3551 20.2168C 68.5693 20.3228 68.8109 20.4155 69.0802 20.4917C 69.3494 20.5678 69.6157 20.6506 69.8793 20.7401C 70.9339 21.0911 71.7057 21.5647 72.1945 22.1541C 72.6832 22.7469 72.9277 23.5152 72.9277 24.4657C 72.9277 25.1048 72.8206 25.6844 72.6064 26.2043C 72.3922 26.7209 72.0791 27.168 71.6672 27.5356C 71.2552 27.9065 70.75 28.1946 70.1512 28.3966C 69.5524 28.6019 68.8742 28.7046 68.1162 28.7046C 66.5452 28.7046 65.0899 28.2343 63.7496 27.2971L 65.1337 24.6809C 65.6172 25.1114 66.0951 25.4293 66.5673 25.6413C 67.0396 25.8499 67.5065 25.9559 67.9679 25.9559C 68.4952 25.9559 68.888 25.8334 69.1461 25.5916C 69.4041 25.3466 69.5333 25.0717 69.5333 24.7637C 69.5333 24.5749 69.5003 24.4127 69.4344 24.2736C 69.3685 24.1378 69.2588 24.0087 69.1049 23.8928C 68.951 23.7769 68.7506 23.6708 68.5034 23.5715C 68.2563 23.4721 67.957 23.3595 67.6054 23.2403C 67.1878 23.1078 66.7789 22.9622 66.3778 22.7999C 65.9767 22.6409 65.6198 22.4289 65.3068 22.164C 64.9937 21.899 64.7409 21.5647 64.5488 21.1606C 64.3567 20.7599 64.2604 20.2499 64.2604 19.6306C 64.2604 19.0113 64.3619 18.4516 64.5652 17.9482C 64.7686 17.4482 65.054 17.0177 65.4221 16.6567C 65.7902 16.299 66.2404 16.0209 66.7733 15.8222C 67.3062 15.6235 67.902 15.5241 68.5611 15.5241C 69.1764 15.5241 69.819 15.6103 70.489 15.7791C 71.159 15.9514 71.8016 16.203 72.4169 16.5341L 71.1317 19.0676ZM 73.6527 29.2512L 82.9626 29.2512L 82.9626 31.9999L 73.6527 31.9999L 73.6527 29.2512Z"/>
</defs>
</svg>
